<?xml version="1.0" encoding="utf-8"?>
<!-- Generator: Adobe Illustrator 15.1.0, SVG Export Plug-In . SVG Version: 6.00 Build 0)  -->
<!DOCTYPE svg PUBLIC "-//W3C//DTD SVG 1.1//EN" "http://www.w3.org/Graphics/SVG/1.1/DTD/svg11.dtd">
<svg version="1.1" id="Layer_1" xmlns="http://www.w3.org/2000/svg" xmlns:xlink="http://www.w3.org/1999/xlink" x="0px" y="0px"
	 width="1082px" height="295px" viewBox="0 0 1082 295" enable-background="new 0 0 1082 295" xml:space="preserve">
<g id="g6104-1-7" transform="translate(69.258586,0.98151725)">
	<rect id="rect5748-9-3" x="13.884" y="90.999" fill="none" stroke="#4EBDCD" stroke-width="2" width="108.267" height="108.268"/>
</g>
<line fill="none" stroke="#000000" stroke-width="2" stroke-miterlimit="10" x1="296.455" y1="22.705" x2="935.994" y2="22.705"/>
<line fill="none" stroke="#000000" stroke-width="2" stroke-miterlimit="10" x1="298.496" y1="57.203" x2="934.494" y2="57.203"/>
<line fill="none" stroke="#000000" stroke-width="2" stroke-miterlimit="10" x1="299.495" y1="93.704" x2="934.4" y2="93.704"/>
<line fill="none" stroke="#000000" stroke-width="2" stroke-miterlimit="10" x1="298.495" y1="129.204" x2="935.558" y2="129.204"/>
<line fill="none" stroke="#000000" stroke-width="2" stroke-miterlimit="10" x1="298.495" y1="166.328" x2="934.984" y2="166.328"/>
<line fill="none" stroke="#000000" stroke-width="2" stroke-miterlimit="10" x1="297.495" y1="201.204" x2="933.774" y2="201.204"/>
<line fill="none" stroke="#000000" stroke-width="2" stroke-miterlimit="10" x1="298.494" y1="237.704" x2="935.019" y2="237.704"/>
<line fill="none" stroke="#000000" stroke-width="2" stroke-miterlimit="10" x1="296.456" y1="273.702" x2="934.994" y2="273.702"/>
<line fill="none" stroke="#000000" stroke-width="2" stroke-miterlimit="10" x1="297.704" y1="274.692" x2="297.704" y2="22.467"/>
<line fill="none" stroke="#000000" stroke-width="2" stroke-miterlimit="10" x1="859.037" y1="274.692" x2="859.037" y2="22.467"/>
<line fill="none" stroke="#000000" stroke-width="2" stroke-miterlimit="10" x1="335.157" y1="274.692" x2="335.157" y2="22.467"/>
<line fill="none" stroke="#000000" stroke-width="2" stroke-miterlimit="10" x1="373.161" y1="274.692" x2="373.161" y2="22.467"/>
<line fill="none" stroke="#000000" stroke-width="2" stroke-miterlimit="10" x1="410.164" y1="274.692" x2="410.164" y2="22.467"/>
<line fill="none" stroke="#000000" stroke-width="2" stroke-miterlimit="10" x1="448.168" y1="274.692" x2="448.168" y2="22.467"/>
<line fill="none" stroke="#000000" stroke-width="2" stroke-miterlimit="10" x1="522.423" y1="274.692" x2="522.423" y2="22.467"/>
<line fill="none" stroke="#000000" stroke-width="2" stroke-miterlimit="10" x1="559.876" y1="274.692" x2="559.876" y2="22.467"/>
<line fill="none" stroke="#000000" stroke-width="2" stroke-miterlimit="10" x1="597.329" y1="274.692" x2="597.329" y2="22.467"/>
<line fill="none" stroke="#000000" stroke-width="2" stroke-miterlimit="10" x1="634.782" y1="274.692" x2="634.782" y2="22.467"/>
<line fill="none" stroke="#000000" stroke-width="2" stroke-miterlimit="10" x1="672.235" y1="274.692" x2="672.235" y2="22.467"/>
<line fill="none" stroke="#000000" stroke-width="2" stroke-miterlimit="10" x1="709.688" y1="274.692" x2="709.688" y2="22.467"/>
<line fill="none" stroke="#000000" stroke-width="2" stroke-miterlimit="10" x1="896.688" y1="274.692" x2="896.688" y2="22.467"/>
<line fill="none" stroke="#000000" stroke-width="2" stroke-miterlimit="10" x1="747.142" y1="274.692" x2="747.142" y2="22.467"/>
<line fill="none" stroke="#000000" stroke-width="2" stroke-miterlimit="10" x1="784.595" y1="274.692" x2="784.595" y2="22.467"/>
<line fill="none" stroke="#000000" stroke-width="2" stroke-miterlimit="10" x1="822.048" y1="274.692" x2="822.048" y2="22.467"/>
<g>
	<line fill="none" stroke="#000000" stroke-width="2" stroke-miterlimit="10" x1="484.97" y1="274.692" x2="484.97" y2="22.467"/>
	<path fill="none" stroke="#000000" stroke-width="2" stroke-miterlimit="10" d="M502.163,272.95"/>
	<path fill="none" stroke="#000000" stroke-width="2" stroke-miterlimit="10" d="M485.664,199.764"/>
</g>
<g>
	<g>
		<line fill="none" stroke="#A7A9AC" stroke-width="2" stroke-miterlimit="10" x1="484.987" y1="53.745" x2="521.191" y2="21.909"/>
		
			<line fill="none" stroke="#A7A9AC" stroke-width="2" stroke-miterlimit="10" x1="499.994" y1="273.763" x2="523.377" y2="252.666"/>
		<line fill="none" stroke="#A7A9AC" stroke-width="2" stroke-miterlimit="10" x1="484.987" y1="89.078" x2="521.191" y2="57.243"/>
		<line fill="none" stroke="#A7A9AC" stroke-width="2" stroke-miterlimit="10" x1="483.654" y1="74.097" x2="523.348" y2="37.527"/>
		<line fill="none" stroke="#A7A9AC" stroke-width="2" stroke-miterlimit="10" x1="501.32" y1="91.763" x2="522.543" y2="73.665"/>
		
			<line fill="none" stroke="#A7A9AC" stroke-width="2" stroke-miterlimit="10" x1="484.857" y1="161.914" x2="522.357" y2="126.414"/>
		
			<line fill="none" stroke="#A7A9AC" stroke-width="2" stroke-miterlimit="10" x1="484.857" y1="143.414" x2="502.875" y2="126.998"/>
		
			<line fill="none" stroke="#A7A9AC" stroke-width="2" stroke-miterlimit="10" x1="483.857" y1="179.914" x2="523.041" y2="144.664"/>
		
			<line fill="none" stroke="#A7A9AC" stroke-width="2" stroke-miterlimit="10" x1="485.655" y1="124.078" x2="521.859" y2="92.242"/>
		<line fill="none" stroke="#A7A9AC" stroke-width="2" stroke-miterlimit="10" x1="485.82" y1="106.597" x2="500.857" y2="92.913"/>
		
			<line fill="none" stroke="#A7A9AC" stroke-width="2" stroke-miterlimit="10" x1="501.486" y1="127.763" x2="522.709" y2="109.666"/>
		
			<line fill="none" stroke="#A7A9AC" stroke-width="2" stroke-miterlimit="10" x1="484.857" y1="235.414" x2="522.357" y2="199.914"/>
		
			<line fill="none" stroke="#A7A9AC" stroke-width="2" stroke-miterlimit="10" x1="484.857" y1="271.414" x2="522.357" y2="235.914"/>
		
			<line fill="none" stroke="#A7A9AC" stroke-width="2" stroke-miterlimit="10" x1="484.857" y1="216.914" x2="502.875" y2="200.498"/>
		
			<line fill="none" stroke="#A7A9AC" stroke-width="2" stroke-miterlimit="10" x1="484.857" y1="256.414" x2="523.041" y2="218.164"/>
		
			<line fill="none" stroke="#A7A9AC" stroke-width="2" stroke-miterlimit="10" x1="485.655" y1="197.578" x2="521.859" y2="165.742"/>
		
			<line fill="none" stroke="#A7A9AC" stroke-width="2" stroke-miterlimit="10" x1="501.486" y1="201.263" x2="522.709" y2="183.166"/>
		<line fill="none" stroke="#A7A9AC" stroke-width="2" stroke-miterlimit="10" x1="484.994" y1="39.763" x2="503.994" y2="23.263"/>
	</g>
</g>
<g>
	<path fill="none" stroke="#ED1C24" stroke-width="2" stroke-miterlimit="10" d="M448.111,23.795"/>
	<line fill="none" stroke="#ED1C24" stroke-width="2" stroke-miterlimit="10" x1="334.162" y1="56.443" x2="372.96" y2="22.978"/>
	<line fill="none" stroke="#ED1C24" stroke-width="2" stroke-miterlimit="10" x1="335.793" y1="40.541" x2="355.385" y2="23.363"/>
	<line fill="none" stroke="#ED1C24" stroke-width="2" stroke-miterlimit="10" x1="334.162" y1="92.648" x2="410.94" y2="22.739"/>
	<line fill="none" stroke="#ED1C24" stroke-width="2" stroke-miterlimit="10" x1="335.384" y1="108.748" x2="428.098" y2="23.386"/>
	
		<line fill="none" stroke="#ED1C24" stroke-width="2" stroke-miterlimit="10" x1="352.264" y1="273.676" x2="448.292" y2="186.073"/>
	<line fill="none" stroke="#ED1C24" stroke-width="2" stroke-miterlimit="10" x1="334.162" y1="74.05" x2="392.838" y2="22.739"/>
	<line fill="none" stroke="#ED1C24" stroke-width="2" stroke-miterlimit="10" x1="388.162" y1="274.717" x2="448.52" y2="222.292"/>
	<line fill="none" stroke="#ED1C24" stroke-width="2" stroke-miterlimit="10" x1="334.162" y1="129.477" x2="448.111" y2="23.795"/>
	<line fill="none" stroke="#ED1C24" stroke-width="2" stroke-miterlimit="10" x1="334.162" y1="166.305" x2="448.292" y2="57.684"/>
	
		<line fill="none" stroke="#ED1C24" stroke-width="2" stroke-miterlimit="10" x1="334.162" y1="274.919" x2="448.928" y2="166.337"/>
	<line fill="none" stroke="#ED1C24" stroke-width="2" stroke-miterlimit="10" x1="334.162" y1="203.133" x2="448.292" y2="96.201"/>
	<line fill="none" stroke="#ED1C24" stroke-width="2" stroke-miterlimit="10" x1="334.162" y1="239.962" x2="448.52" y2="129.578"/>
	<line fill="none" stroke="#ED1C24" stroke-width="2" stroke-miterlimit="10" x1="334.976" y1="148.366" x2="448.928" y2="39.724"/>
	<line fill="none" stroke="#ED1C24" stroke-width="2" stroke-miterlimit="10" x1="334.976" y1="185.533" x2="448.292" y2="75.461"/>
	<line fill="none" stroke="#ED1C24" stroke-width="2" stroke-miterlimit="10" x1="334.976" y1="222.7" x2="448.52" y2="113.241"/>
	<line fill="none" stroke="#ED1C24" stroke-width="2" stroke-miterlimit="10" x1="335.793" y1="256.6" x2="448.52" y2="148.774"/>
	
		<line fill="none" stroke="#ED1C24" stroke-width="2" stroke-miterlimit="10" x1="370.162" y1="273.717" x2="447.505" y2="204.405"/>
	
		<line fill="none" stroke="#ED1C24" stroke-width="2" stroke-miterlimit="10" x1="408.828" y1="272.776" x2="445.032" y2="240.941"/>
	<line fill="none" stroke="#ED1C24" stroke-width="2" stroke-miterlimit="10" x1="424.829" y1="273.128" x2="446.052" y2="255.03"/>
</g>
<g>
	<path fill="none" stroke="#ED1C24" stroke-width="2" stroke-miterlimit="10" d="M673.016,22.978"/>
	<line fill="none" stroke="#ED1C24" stroke-width="2" stroke-miterlimit="10" x1="561.162" y1="56.443" x2="597.366" y2="24.607"/>
	<line fill="none" stroke="#ED1C24" stroke-width="2" stroke-miterlimit="10" x1="561.162" y1="41.461" x2="582.385" y2="23.363"/>
	<line fill="none" stroke="#ED1C24" stroke-width="2" stroke-miterlimit="10" x1="561.162" y1="92.648" x2="637.94" y2="22.739"/>
	<line fill="none" stroke="#ED1C24" stroke-width="2" stroke-miterlimit="10" x1="559.913" y1="110.13" x2="655.597" y2="23.387"/>
	
		<line fill="none" stroke="#ED1C24" stroke-width="2" stroke-miterlimit="10" x1="579.264" y1="273.676" x2="672.272" y2="188.158"/>
	<line fill="none" stroke="#ED1C24" stroke-width="2" stroke-miterlimit="10" x1="561.162" y1="74.05" x2="619.838" y2="22.739"/>
	
		<line fill="none" stroke="#ED1C24" stroke-width="2" stroke-miterlimit="10" x1="615.162" y1="274.717" x2="672.751" y2="224.743"/>
	<line fill="none" stroke="#ED1C24" stroke-width="2" stroke-miterlimit="10" x1="561.162" y1="129.477" x2="672.896" y2="23.988"/>
	
		<line fill="none" stroke="#ED1C24" stroke-width="2.058" stroke-miterlimit="10" x1="561.162" y1="166.305" x2="672.272" y2="59.568"/>
	
		<line fill="none" stroke="#ED1C24" stroke-width="2.058" stroke-miterlimit="10" x1="561.162" y1="274.919" x2="672.272" y2="168.182"/>
	
		<line fill="none" stroke="#ED1C24" stroke-width="2.058" stroke-miterlimit="10" x1="561.162" y1="203.133" x2="673.521" y2="97.645"/>
	
		<line fill="none" stroke="#ED1C24" stroke-width="2" stroke-miterlimit="10" x1="561.162" y1="239.962" x2="673.521" y2="131.353"/>
	<line fill="none" stroke="#ED1C24" stroke-width="2" stroke-miterlimit="10" x1="559.913" y1="150.079" x2="673.521" y2="41.465"/>
	<line fill="none" stroke="#ED1C24" stroke-width="2" stroke-miterlimit="10" x1="560.537" y1="186.284" x2="673.521" y2="77.669"/>
	
		<line fill="none" stroke="#ED1C24" stroke-width="2" stroke-miterlimit="10" x1="560.537" y1="223.608" x2="673.521" y2="114.994"/>
	<line fill="none" stroke="#ED1C24" stroke-width="2" stroke-miterlimit="10" x1="560.537" y1="258.565" x2="673.521" y2="149.95"/>
	
		<line fill="none" stroke="#ED1C24" stroke-width="2" stroke-miterlimit="10" x1="597.162" y1="273.717" x2="672.751" y2="206.771"/>
	
		<line fill="none" stroke="#ED1C24" stroke-width="2" stroke-miterlimit="10" x1="635.828" y1="272.776" x2="672.032" y2="240.941"/>
	<line fill="none" stroke="#ED1C24" stroke-width="2" stroke-miterlimit="10" x1="651.829" y1="273.128" x2="673.052" y2="255.03"/>
</g>
<g>
	<path fill="none" stroke="#ED1C24" stroke-width="2" stroke-miterlimit="10" d="M896.516,22.978"/>
	<path fill="none" stroke="#ED1C24" stroke-width="2" stroke-miterlimit="10" d="M896.516,275.204"/>
	<line fill="none" stroke="#ED1C24" stroke-width="2" stroke-miterlimit="10" x1="784.662" y1="56.443" x2="820.866" y2="24.607"/>
	<line fill="none" stroke="#ED1C24" stroke-width="2" stroke-miterlimit="10" x1="784.662" y1="41.461" x2="805.885" y2="23.363"/>
	<line fill="none" stroke="#ED1C24" stroke-width="2" stroke-miterlimit="10" x1="784.662" y1="92.648" x2="861.44" y2="22.739"/>
	<line fill="none" stroke="#ED1C24" stroke-width="2" stroke-miterlimit="10" x1="783.413" y1="110.13" x2="879.421" y2="22.57"/>
	
		<line fill="none" stroke="#ED1C24" stroke-width="2" stroke-miterlimit="10" x1="802.764" y1="273.676" x2="895.772" y2="188.158"/>
	<line fill="none" stroke="#ED1C24" stroke-width="2" stroke-miterlimit="10" x1="784.662" y1="74.05" x2="843.338" y2="22.739"/>
	
		<line fill="none" stroke="#ED1C24" stroke-width="2" stroke-miterlimit="10" x1="838.662" y1="274.717" x2="897.338" y2="223.406"/>
	<line fill="none" stroke="#ED1C24" stroke-width="2" stroke-miterlimit="10" x1="784.662" y1="129.477" x2="896.396" y2="23.988"/>
	
		<line fill="none" stroke="#ED1C24" stroke-width="2.058" stroke-miterlimit="10" x1="784.662" y1="166.305" x2="895.772" y2="59.568"/>
	
		<line fill="none" stroke="#ED1C24" stroke-width="2.058" stroke-miterlimit="10" x1="784.662" y1="274.919" x2="895.772" y2="168.182"/>
	
		<line fill="none" stroke="#ED1C24" stroke-width="2.058" stroke-miterlimit="10" x1="784.662" y1="203.133" x2="897.021" y2="97.645"/>
	
		<line fill="none" stroke="#ED1C24" stroke-width="2" stroke-miterlimit="10" x1="784.662" y1="239.962" x2="897.021" y2="131.353"/>
	<line fill="none" stroke="#ED1C24" stroke-width="2" stroke-miterlimit="10" x1="783.413" y1="150.079" x2="897.021" y2="41.465"/>
	<line fill="none" stroke="#ED1C24" stroke-width="2" stroke-miterlimit="10" x1="784.037" y1="186.284" x2="897.021" y2="77.669"/>
	
		<line fill="none" stroke="#ED1C24" stroke-width="2" stroke-miterlimit="10" x1="784.037" y1="223.608" x2="897.021" y2="114.994"/>
	<line fill="none" stroke="#ED1C24" stroke-width="2" stroke-miterlimit="10" x1="784.037" y1="258.565" x2="897.021" y2="149.95"/>
	
		<line fill="none" stroke="#ED1C24" stroke-width="2" stroke-miterlimit="10" x1="820.662" y1="273.717" x2="898.005" y2="204.405"/>
	
		<line fill="none" stroke="#ED1C24" stroke-width="2" stroke-miterlimit="10" x1="859.328" y1="272.776" x2="895.532" y2="240.941"/>
	<line fill="none" stroke="#ED1C24" stroke-width="2" stroke-miterlimit="10" x1="875.329" y1="273.128" x2="896.552" y2="255.03"/>
</g>
<text transform="matrix(1 0 0 1 227.9414 100.2617)" font-family="'HelveticaNeue-Medium'" font-size="16">HTTP</text>
<text transform="matrix(1 0 0 1 948.0732 45.9639)" font-family="'HelveticaNeue-Roman'" font-size="14">Wind Speed</text>
<text transform="matrix(1 0 0 1 948.0732 153.4639)" font-family="'HelveticaNeue-Roman'" font-size="14">Temperature</text>
<text transform="matrix(1 0 0 1 948.0732 74.4585)"><tspan x="0" y="0" font-family="'HelveticaNeue-Roman'" font-size="14">Current Direction </tspan><tspan x="0" y="15" font-family="'HelveticaNeue-Roman'" font-size="14">X-Component</tspan></text>
<text transform="matrix(1 0 0 1 948.0732 108.9585)"><tspan x="0" y="0" font-family="'HelveticaNeue-Roman'" font-size="14">Current Direction </tspan><tspan x="0" y="15" font-family="'HelveticaNeue-Roman'" font-size="14">Y-Component</tspan></text>
<text transform="matrix(1 0 0 1 948.0732 187.2188)" font-family="'HelveticaNeue-Roman'" font-size="14">Sea-Surface-Height</text>
<g>
	<path fill="#6D6E71" stroke="#6D6E71" stroke-width="0.8606" d="M998.703,203.131c2.22,0,3.78,1.5,3.78,3.601
		c0,2.1-1.561,3.54-3.78,3.54c-2.16,0-3.78-1.381-3.78-3.601C994.923,204.572,996.543,203.131,998.703,203.131z"/>
	<path fill="#6D6E71" stroke="#6D6E71" stroke-width="0.8606" d="M998.703,215.55c2.22,0,3.78,1.5,3.78,3.601
		c0,2.1-1.561,3.54-3.78,3.54c-2.16,0-3.78-1.381-3.78-3.601C994.923,216.991,996.543,215.55,998.703,215.55z"/>
	<path fill="#6D6E71" stroke="#6D6E71" stroke-width="0.8606" d="M998.703,227.97c2.22,0,3.78,1.5,3.78,3.6
		c0,2.101-1.561,3.54-3.78,3.54c-2.16,0-3.78-1.38-3.78-3.6C994.923,229.41,996.543,227.97,998.703,227.97z"/>
</g>
<line fill="none" stroke="#4EBDCD" stroke-width="2" x1="82.194" y1="128.123" x2="190.655" y2="128.123"/>
<line fill="none" stroke="#4EBDCD" stroke-width="2" x1="119.501" y1="91.584" x2="119.501" y2="200.045"/>
<line fill="none" stroke="#4EBDCD" stroke-width="2" x1="155.271" y1="91.584" x2="155.271" y2="200.045"/>
<line fill="none" stroke="#4EBDCD" stroke-width="2" x1="82.194" y1="164.661" x2="190.655" y2="164.661"/>
<path id="path5439-8-7-1-7_1_" sodipodi:type="arc" sodipodi:cx="2502.1428" sodipodi:cy="-718.0484" sodipodi:rx="6.4285722" sodipodi:ry="6.4285722" fill="#2E3192" d="
	M83.157,96.256c-2.303,0-4.172-1.867-4.172-4.17c0-2.304,1.869-4.171,4.172-4.171c2.302,0,4.17,1.867,4.17,4.171
	C87.327,94.389,85.458,96.256,83.157,96.256z"/>
<path id="path5439-8-7-1-7_2_" sodipodi:type="arc" sodipodi:cx="2502.1428" sodipodi:cy="-718.0484" sodipodi:rx="6.4285722" sodipodi:ry="6.4285722" fill="#2E3192" d="
	M119.311,96.256c-2.303,0-4.172-1.867-4.172-4.17c0-2.304,1.869-4.171,4.172-4.171c2.302,0,4.17,1.867,4.17,4.171
	C123.48,94.389,121.612,96.256,119.311,96.256z"/>
<path id="path5439-8-7-1-7_3_" sodipodi:type="arc" sodipodi:cx="2502.1428" sodipodi:cy="-718.0484" sodipodi:rx="6.4285722" sodipodi:ry="6.4285722" fill="#2E3192" d="
	M154.695,96.256c-2.303,0-4.172-1.867-4.172-4.17c0-2.304,1.869-4.171,4.172-4.171c2.302,0,4.17,1.867,4.17,4.171
	C158.865,94.389,156.997,96.256,154.695,96.256z"/>
<path id="path5439-8-7-1-7_4_" sodipodi:type="arc" sodipodi:cx="2502.1428" sodipodi:cy="-718.0484" sodipodi:rx="6.4285722" sodipodi:ry="6.4285722" fill="#2E3192" d="
	M191.233,96.256c-2.303,0-4.172-1.867-4.172-4.17c0-2.304,1.869-4.171,4.172-4.171c2.302,0,4.17,1.867,4.17,4.171
	C195.403,94.389,193.535,96.256,191.233,96.256z"/>
<path id="path5439-8-7-1-7_8_" sodipodi:type="arc" sodipodi:cx="2502.1428" sodipodi:cy="-718.0484" sodipodi:rx="6.4285722" sodipodi:ry="6.4285722" fill="#2E3192" d="
	M83.157,132.025c-2.303,0-4.172-1.867-4.172-4.171c0-2.303,1.869-4.17,4.172-4.17c2.302,0,4.17,1.867,4.17,4.17
	C87.327,130.158,85.458,132.025,83.157,132.025z"/>
<path id="path5439-8-7-1-7_7_" sodipodi:type="arc" sodipodi:cx="2502.1428" sodipodi:cy="-718.0484" sodipodi:rx="6.4285722" sodipodi:ry="6.4285722" fill="#2E3192" d="
	M119.311,132.025c-2.303,0-4.172-1.867-4.172-4.171c0-2.303,1.869-4.17,4.172-4.17c2.302,0,4.17,1.867,4.17,4.17
	C123.48,130.158,121.612,132.025,119.311,132.025z"/>
<path id="path5439-8-7-1-7_6_" sodipodi:type="arc" sodipodi:cx="2502.1428" sodipodi:cy="-718.0484" sodipodi:rx="6.4285722" sodipodi:ry="6.4285722" fill="#2E3192" d="
	M154.695,132.025c-2.303,0-4.172-1.867-4.172-4.171c0-2.303,1.869-4.17,4.172-4.17c2.302,0,4.17,1.867,4.17,4.17
	C158.865,130.158,156.997,132.025,154.695,132.025z"/>
<path id="path5439-8-7-1-7_5_" sodipodi:type="arc" sodipodi:cx="2502.1428" sodipodi:cy="-718.0484" sodipodi:rx="6.4285722" sodipodi:ry="6.4285722" fill="#2E3192" d="
	M191.233,132.025c-2.303,0-4.172-1.867-4.172-4.171c0-2.303,1.869-4.17,4.172-4.17c2.302,0,4.17,1.867,4.17,4.17
	C195.403,130.158,193.535,132.025,191.233,132.025z"/>
<path id="path5439-8-7-1-7_12_" sodipodi:type="arc" sodipodi:cx="2502.1428" sodipodi:cy="-718.0484" sodipodi:rx="6.4285722" sodipodi:ry="6.4285722" fill="#2E3192" d="
	M83.157,168.795c-2.303,0-4.172-1.867-4.172-4.171s1.869-4.171,4.172-4.171c2.302,0,4.17,1.867,4.17,4.171
	S85.458,168.795,83.157,168.795z"/>
<path id="path5439-8-7-1-7_11_" sodipodi:type="arc" sodipodi:cx="2502.1428" sodipodi:cy="-718.0484" sodipodi:rx="6.4285722" sodipodi:ry="6.4285722" fill="#2E3192" d="
	M119.311,168.795c-2.303,0-4.172-1.867-4.172-4.171s1.869-4.171,4.172-4.171c2.302,0,4.17,1.867,4.17,4.171
	S121.612,168.795,119.311,168.795z"/>
<path id="path5439-8-7-1-7_10_" sodipodi:type="arc" sodipodi:cx="2502.1428" sodipodi:cy="-718.0484" sodipodi:rx="6.4285722" sodipodi:ry="6.4285722" fill="#2E3192" d="
	M154.695,168.795c-2.303,0-4.172-1.867-4.172-4.171s1.869-4.171,4.172-4.171c2.302,0,4.17,1.867,4.17,4.171
	S156.997,168.795,154.695,168.795z"/>
<path id="path5439-8-7-1-7_9_" sodipodi:type="arc" sodipodi:cx="2502.1428" sodipodi:cy="-718.0484" sodipodi:rx="6.4285722" sodipodi:ry="6.4285722" fill="#2E3192" d="
	M191.233,168.795c-2.303,0-4.172-1.867-4.172-4.171s1.869-4.171,4.172-4.171c2.302,0,4.17,1.867,4.17,4.171
	S193.535,168.795,191.233,168.795z"/>
<path id="path5439-8-7-1-7_16_" sodipodi:type="arc" sodipodi:cx="2502.1428" sodipodi:cy="-718.0484" sodipodi:rx="6.4285722" sodipodi:ry="6.4285722" fill="#2E3192" d="
	M83.157,203.795c-2.303,0-4.172-1.867-4.172-4.171s1.869-4.171,4.172-4.171c2.302,0,4.17,1.867,4.17,4.171
	S85.458,203.795,83.157,203.795z"/>
<path id="path5439-8-7-1-7_15_" sodipodi:type="arc" sodipodi:cx="2502.1428" sodipodi:cy="-718.0484" sodipodi:rx="6.4285722" sodipodi:ry="6.4285722" fill="#2E3192" d="
	M119.311,203.795c-2.303,0-4.172-1.867-4.172-4.171s1.869-4.171,4.172-4.171c2.302,0,4.17,1.867,4.17,4.171
	S121.612,203.795,119.311,203.795z"/>
<path id="path5439-8-7-1-7_14_" sodipodi:type="arc" sodipodi:cx="2502.1428" sodipodi:cy="-718.0484" sodipodi:rx="6.4285722" sodipodi:ry="6.4285722" fill="#2E3192" d="
	M154.695,203.795c-2.303,0-4.172-1.867-4.172-4.171s1.869-4.171,4.172-4.171c2.302,0,4.17,1.867,4.17,4.171
	S156.997,203.795,154.695,203.795z"/>
<path id="path5439-8-7-1-7_13_" sodipodi:type="arc" sodipodi:cx="2502.1428" sodipodi:cy="-718.0484" sodipodi:rx="6.4285722" sodipodi:ry="6.4285722" fill="#2E3192" d="
	M191.233,203.795c-2.303,0-4.172-1.867-4.172-4.171s1.869-4.171,4.172-4.171c2.302,0,4.17,1.867,4.17,4.171
	S193.535,203.795,191.233,203.795z"/>
<g>
	<g>
		<polyline fill="none" stroke="#ED1C24" stroke-width="1.8276" stroke-miterlimit="10" points="201.509,169.79 201.509,175.272 
			196.026,175.272 		"/>
		
			<line fill="none" stroke="#ED1C24" stroke-width="1.8276" stroke-miterlimit="10" stroke-dasharray="11.6478,11.6478" x1="184.378" y1="175.272" x2="120.315" y2="175.272"/>
		<polyline fill="none" stroke="#ED1C24" stroke-width="1.8276" stroke-miterlimit="10" points="114.492,175.272 109.009,175.272 
			109.009,169.79 		"/>
		
			<line fill="none" stroke="#ED1C24" stroke-width="1.8276" stroke-miterlimit="10" stroke-dasharray="11.7192,11.7192" x1="109.009" y1="158.07" x2="109.009" y2="93.614"/>
		<polyline fill="none" stroke="#ED1C24" stroke-width="1.8276" stroke-miterlimit="10" points="109.009,87.755 109.009,82.272 
			114.492,82.272 		"/>
		
			<line fill="none" stroke="#ED1C24" stroke-width="1.8276" stroke-miterlimit="10" stroke-dasharray="11.6478,11.6478" x1="126.139" y1="82.272" x2="190.202" y2="82.272"/>
		<polyline fill="none" stroke="#ED1C24" stroke-width="1.8276" stroke-miterlimit="10" points="196.026,82.272 201.509,82.272 
			201.509,87.755 		"/>
		
			<line fill="none" stroke="#ED1C24" stroke-width="1.8276" stroke-miterlimit="10" stroke-dasharray="11.7192,11.7192" x1="201.509" y1="99.474" x2="201.509" y2="163.93"/>
	</g>
</g>
<g>
	<g>
		<polyline fill="none" stroke="#A7A9AC" stroke-width="2" stroke-miterlimit="10" points="99.009,145.594 99.009,147.772 
			96.832,147.772 		"/>
		
			<line fill="none" stroke="#A7A9AC" stroke-width="2" stroke-miterlimit="10" stroke-dasharray="4.1636,4.1636" x1="92.668" y1="147.772" x2="69.768" y2="147.772"/>
		<polyline fill="none" stroke="#A7A9AC" stroke-width="2" stroke-miterlimit="10" points="67.686,147.772 65.509,147.772 
			65.509,145.594 		"/>
		
			<line fill="none" stroke="#A7A9AC" stroke-width="2" stroke-miterlimit="10" stroke-dasharray="4.0161,4.0161" x1="65.509" y1="141.579" x2="65.509" y2="111.458"/>
		<polyline fill="none" stroke="#A7A9AC" stroke-width="2" stroke-miterlimit="10" points="65.509,109.449 65.509,107.272 
			67.686,107.272 		"/>
		
			<line fill="none" stroke="#A7A9AC" stroke-width="2" stroke-miterlimit="10" stroke-dasharray="4.1636,4.1636" x1="71.85" y1="107.272" x2="94.75" y2="107.272"/>
		<polyline fill="none" stroke="#A7A9AC" stroke-width="2" stroke-miterlimit="10" points="96.832,107.272 99.009,107.272 
			99.009,109.449 		"/>
		
			<line fill="none" stroke="#A7A9AC" stroke-width="2" stroke-miterlimit="10" stroke-dasharray="4.0161,4.0161" x1="99.009" y1="113.465" x2="99.009" y2="143.586"/>
	</g>
</g>
<g>
	<g>
		
			<line fill="none" stroke="#A7A9AC" stroke-width="2.3466" stroke-miterlimit="10" x1="236.324" y1="112.755" x2="262.717" y2="112.755"/>
		<g>
			<polygon fill="#A7A9AC" points="239.028,121.947 223.021,112.705 239.028,103.46 			"/>
		</g>
		<g>
			<polygon fill="#A7A9AC" points="260.013,121.947 276.021,112.705 260.013,103.46 			"/>
		</g>
	</g>
</g>
<g>
	<path fill="#6D6E71" stroke="#6D6E71" stroke-width="0.8606" d="M137.989,212.191c2.22,0,3.78,1.5,3.78,3.601
		c0,2.1-1.561,3.54-3.78,3.54c-2.16,0-3.78-1.381-3.78-3.601C134.209,213.631,135.829,212.191,137.989,212.191z"/>
	<path fill="#6D6E71" stroke="#6D6E71" stroke-width="0.8606" d="M137.989,224.61c2.22,0,3.78,1.5,3.78,3.601
		c0,2.1-1.561,3.54-3.78,3.54c-2.16,0-3.78-1.381-3.78-3.601C134.209,226.05,135.829,224.61,137.989,224.61z"/>
	<path fill="#6D6E71" stroke="#6D6E71" stroke-width="0.8606" d="M137.989,237.03c2.22,0,3.78,1.5,3.78,3.6
		c0,2.101-1.561,3.54-3.78,3.54c-2.16,0-3.78-1.38-3.78-3.6C134.209,238.469,135.829,237.03,137.989,237.03z"/>
</g>
<g>
	<path fill="#6D6E71" stroke="#6D6E71" stroke-width="0.8606" d="M137.989,40.691c2.22,0,3.78,1.5,3.78,3.601
		c0,2.1-1.561,3.54-3.78,3.54c-2.16,0-3.78-1.381-3.78-3.601C134.209,42.131,135.829,40.691,137.989,40.691z"/>
	<path fill="#6D6E71" stroke="#6D6E71" stroke-width="0.8606" d="M137.989,53.11c2.22,0,3.78,1.5,3.78,3.601
		c0,2.1-1.561,3.54-3.78,3.54c-2.16,0-3.78-1.381-3.78-3.601C134.209,54.55,135.829,53.11,137.989,53.11z"/>
	<path fill="#6D6E71" stroke="#6D6E71" stroke-width="0.8606" d="M137.989,65.53c2.22,0,3.78,1.5,3.78,3.6
		c0,2.101-1.561,3.54-3.78,3.54c-2.16,0-3.78-1.38-3.78-3.6C134.209,66.969,135.829,65.53,137.989,65.53z"/>
</g>
<g>
	<path fill="#6D6E71" stroke="#6D6E71" stroke-width="0.8606" d="M14.5,146.18c0-2.221,1.5-3.781,3.601-3.781
		c2.1,0,3.54,1.561,3.54,3.781c0,2.16-1.381,3.779-3.601,3.779C15.94,149.959,14.5,148.34,14.5,146.18z"/>
	<path fill="#6D6E71" stroke="#6D6E71" stroke-width="0.8606" d="M26.918,146.18c0-2.221,1.5-3.781,3.601-3.781
		c2.1,0,3.54,1.561,3.54,3.781c0,2.16-1.381,3.779-3.601,3.779C28.359,149.959,26.918,148.34,26.918,146.18z"/>
	<path fill="#6D6E71" stroke="#6D6E71" stroke-width="0.8606" d="M39.338,146.18c0-2.221,1.5-3.781,3.6-3.781
		c2.101,0,3.54,1.561,3.54,3.781c0,2.16-1.38,3.779-3.6,3.779C40.778,149.959,39.338,148.34,39.338,146.18z"/>
</g>
<g>
	<path fill="#6D6E71" stroke="#6D6E71" stroke-width="0.8606" d="M233.513,146.18c0-2.221,1.5-3.781,3.601-3.781
		c2.1,0,3.54,1.561,3.54,3.781c0,2.16-1.381,3.779-3.601,3.779C234.954,149.959,233.513,148.34,233.513,146.18z"/>
	<path fill="#6D6E71" stroke="#6D6E71" stroke-width="0.8606" d="M245.932,146.18c0-2.221,1.5-3.781,3.601-3.781
		c2.1,0,3.54,1.561,3.54,3.781c0,2.16-1.381,3.779-3.601,3.779C247.373,149.959,245.932,148.34,245.932,146.18z"/>
	<path fill="#6D6E71" stroke="#6D6E71" stroke-width="0.8606" d="M258.352,146.18c0-2.221,1.5-3.781,3.6-3.781
		c2.101,0,3.54,1.561,3.54,3.781c0,2.16-1.38,3.779-3.6,3.779C259.792,149.959,258.352,148.34,258.352,146.18z"/>
</g>
<line fill="none" stroke="#000000" stroke-width="2" stroke-miterlimit="10" x1="934.688" y1="274.692" x2="934.688" y2="22.467"/>
</svg>
