<?xml version="1.0" encoding="utf-8"?>
<!-- Generator: Adobe Illustrator 15.1.0, SVG Export Plug-In . SVG Version: 6.00 Build 0)  -->
<!DOCTYPE svg PUBLIC "-//W3C//DTD SVG 1.1//EN" "http://www.w3.org/Graphics/SVG/1.1/DTD/svg11.dtd">
<svg version="1.1" xmlns="http://www.w3.org/2000/svg" xmlns:xlink="http://www.w3.org/1999/xlink" x="0px" y="0px"
	 width="284.848px" height="499.242px" viewBox="0 0 284.848 499.242" enable-background="new 0 0 284.848 499.242"
	 xml:space="preserve">
<g id="Layer_1">
	<path fill="none" stroke="#7BCCD6" stroke-width="3.6969" stroke-miterlimit="10" d="M283.369,485.468c0,6.628-7.496,12-10.569,12
		H14.62c-3.071,0-10.567-5.372-10.567-12V14.662c0-6.627,7.496-12,10.567-12h258.18c3.073,0,10.569,5.373,10.569,12V485.468z"/>
	
		<line fill="none" stroke="#4EBDCD" stroke-width="3.7" stroke-miterlimit="10" x1="4.051" y1="163.708" x2="284.193" y2="163.708"/>
	
		<line fill="none" stroke="#4EBDCD" stroke-width="3.7" stroke-miterlimit="10" x1="4.051" y1="274.375" x2="284.193" y2="274.375"/>
	
		<line fill="none" stroke="#4EBDCD" stroke-width="3.7" stroke-miterlimit="10" x1="4.051" y1="385.042" x2="284.193" y2="385.042"/>
	<g>
		<path fill="#6D6E71" stroke="#6D6E71" stroke-width="0.8606" d="M140.978,316.549c2.219,0,3.779,1.5,3.779,3.601
			c0,2.1-1.561,3.539-3.779,3.539c-2.16,0-3.781-1.38-3.781-3.6C137.197,317.99,138.818,316.549,140.978,316.549z"/>
		<path fill="#6D6E71" stroke="#6D6E71" stroke-width="0.8606" d="M140.978,328.968c2.219,0,3.779,1.5,3.779,3.6
			c0,2.101-1.561,3.541-3.779,3.541c-2.16,0-3.781-1.381-3.781-3.601C137.197,330.409,138.818,328.968,140.978,328.968z"/>
		<path fill="#6D6E71" stroke="#6D6E71" stroke-width="0.8606" d="M140.978,341.388c2.219,0,3.779,1.5,3.779,3.6
			s-1.561,3.54-3.779,3.54c-2.16,0-3.781-1.38-3.781-3.601C137.197,342.828,138.818,341.388,140.978,341.388z"/>
	</g>
	<path fill="#4EBDCD" d="M282.037,53.045H4.053V14.662c0-6.627,7.483-12,10.54-12H276.5c3.057,0,5.536,5.373,5.536,12V53.045z"/>
	<g>
		<path fill="#FFFFFF" d="M46.553,38.466l-6.97-19.5h4.27l4.935,14.432l4.775-14.432h4.176l-6.983,19.5H46.553z"/>
		<path fill="#FFFFFF" d="M65.167,14.476c1.182,0,2.105,0.422,2.771,1.266c0.793,0.999,1.19,2.655,1.19,4.969
			c0,2.309-0.399,3.968-1.199,4.978c-0.66,0.833-1.582,1.249-2.763,1.249c-1.188,0-2.145-0.456-2.872-1.369
			c-0.727-0.913-1.09-2.54-1.09-4.882c0-2.297,0.399-3.951,1.199-4.961C63.064,14.893,63.985,14.476,65.167,14.476z M65.167,16.416
			c-0.283,0-0.536,0.09-0.758,0.271c-0.222,0.18-0.394,0.503-0.516,0.97c-0.161,0.604-0.241,1.623-0.241,3.055
			s0.072,2.415,0.216,2.951c0.145,0.536,0.326,0.892,0.545,1.07s0.47,0.266,0.753,0.266c0.283,0,0.535-0.09,0.757-0.271
			c0.222-0.18,0.394-0.503,0.516-0.97c0.161-0.599,0.241-1.615,0.241-3.046s-0.072-2.415-0.216-2.951
			c-0.145-0.536-0.326-0.894-0.545-1.074C65.701,16.506,65.45,16.416,65.167,16.416z"/>
	</g>
	<g>
		<path fill="#FFFFFF" d="M139.223,38.466l-6.97-19.5h4.27l4.935,14.432l4.775-14.432h4.176l-6.983,19.5H139.223z"/>
		<path fill="#FFFFFF" d="M159.868,26.729h-2.339v-8.815c-0.854,0.799-1.862,1.39-3.021,1.773v-2.123
			c0.61-0.2,1.273-0.579,1.989-1.136s1.207-1.208,1.473-1.952h1.898V26.729z"/>
	</g>
	<g>
		<path fill="#FFFFFF" d="M234.607,38.466l-6.97-19.5h4.27l4.935,14.432l4.775-14.432h4.176l-6.983,19.5H234.607z"/>
		<path fill="#FFFFFF" d="M257.167,24.557v2.172h-8.199c0.089-0.821,0.355-1.6,0.799-2.335c0.444-0.735,1.321-1.71,2.63-2.926
			c1.054-0.982,1.701-1.648,1.939-1.998c0.322-0.483,0.483-0.96,0.483-1.432c0-0.521-0.141-0.923-0.42-1.203
			c-0.28-0.28-0.667-0.42-1.161-0.42c-0.489,0-0.877,0.147-1.166,0.441c-0.289,0.294-0.455,0.782-0.5,1.465l-2.331-0.233
			c0.139-1.287,0.574-2.211,1.307-2.772c0.733-0.56,1.648-0.841,2.747-0.841c1.204,0,2.15,0.325,2.838,0.974
			s1.032,1.457,1.032,2.422c0,0.549-0.099,1.072-0.295,1.569c-0.197,0.497-0.509,1.017-0.937,1.561
			c-0.283,0.36-0.793,0.879-1.532,1.556c-0.738,0.677-1.206,1.127-1.402,1.349c-0.197,0.222-0.357,0.438-0.479,0.649H257.167z"/>
	</g>
	<g>
		<path fill="#6D6E71" d="M46.59,117.8l-5.693-14.125h3.924l2.66,7.209l0.771,2.407c0.204-0.612,0.333-1.015,0.386-1.21
			c0.124-0.399,0.257-0.798,0.399-1.197l2.687-7.209h3.844L49.955,117.8H46.59z"/>
		<path fill="#6D6E71" d="M57.31,115.973c0.859,0,1.53,0.306,2.014,0.919c0.576,0.726,0.865,1.929,0.865,3.61
			c0,1.677-0.291,2.882-0.871,3.616c-0.48,0.604-1.149,0.907-2.008,0.907c-0.862,0-1.558-0.332-2.086-0.995
			c-0.528-0.663-0.792-1.845-0.792-3.546c0-1.669,0.29-2.87,0.871-3.604C55.782,116.275,56.451,115.973,57.31,115.973z
			 M57.31,117.381c-0.206,0-0.389,0.065-0.55,0.197c-0.161,0.131-0.286,0.366-0.375,0.704c-0.117,0.439-0.175,1.179-0.175,2.219
			s0.052,1.754,0.157,2.144c0.104,0.389,0.236,0.648,0.396,0.777c0.159,0.129,0.341,0.193,0.547,0.193s0.389-0.065,0.55-0.196
			s0.286-0.366,0.375-0.705c0.117-0.435,0.175-1.173,0.175-2.213s-0.052-1.754-0.157-2.144s-0.237-0.649-0.396-0.78
			C57.698,117.447,57.515,117.381,57.31,117.381z"/>
		<path fill="#6D6E71" d="M61.324,97.826c0.859,0,1.53,0.306,2.014,0.919c0.576,0.726,0.865,1.929,0.865,3.61
			c0,1.677-0.291,2.882-0.871,3.616c-0.48,0.604-1.149,0.907-2.008,0.907c-0.862,0-1.558-0.332-2.086-0.995
			c-0.528-0.663-0.792-1.845-0.792-3.546c0-1.669,0.29-2.87,0.871-3.604C59.796,98.128,60.465,97.826,61.324,97.826z M61.324,99.235
			c-0.206,0-0.389,0.065-0.55,0.197c-0.161,0.131-0.286,0.366-0.375,0.704c-0.117,0.439-0.175,1.179-0.175,2.219
			s0.052,1.754,0.157,2.144c0.104,0.389,0.236,0.648,0.396,0.777c0.159,0.129,0.341,0.193,0.547,0.193s0.389-0.065,0.55-0.196
			s0.286-0.366,0.375-0.705c0.117-0.435,0.175-1.173,0.175-2.213s-0.052-1.754-0.157-2.144s-0.237-0.649-0.396-0.78
			C61.712,99.3,61.529,99.235,61.324,99.235z"/>
	</g>
	<g>
		<path fill="#6D6E71" d="M140.26,117.8l-5.693-14.125h3.924l2.66,7.209l0.771,2.407c0.204-0.612,0.333-1.015,0.386-1.21
			c0.124-0.399,0.257-0.798,0.399-1.197l2.687-7.209h3.844l-5.613,14.125H140.26z"/>
		<path fill="#6D6E71" d="M150.98,115.973c0.859,0,1.53,0.306,2.014,0.919c0.576,0.726,0.865,1.929,0.865,3.61
			c0,1.677-0.291,2.882-0.871,3.616c-0.48,0.604-1.149,0.907-2.008,0.907c-0.862,0-1.558-0.332-2.086-0.995
			c-0.528-0.663-0.792-1.845-0.792-3.546c0-1.669,0.29-2.87,0.871-3.604C149.452,116.275,150.122,115.973,150.98,115.973z
			 M150.98,117.381c-0.206,0-0.389,0.065-0.55,0.197c-0.161,0.131-0.286,0.366-0.375,0.704c-0.117,0.439-0.175,1.179-0.175,2.219
			s0.052,1.754,0.157,2.144c0.104,0.389,0.236,0.648,0.396,0.777c0.159,0.129,0.341,0.193,0.547,0.193s0.389-0.065,0.55-0.196
			s0.286-0.366,0.375-0.705c0.117-0.435,0.175-1.173,0.175-2.213s-0.052-1.754-0.157-2.144s-0.237-0.649-0.396-0.78
			C151.368,117.447,151.186,117.381,150.98,117.381z"/>
		<path fill="#6D6E71" d="M156.47,106.727h-1.699v-6.403c-0.621,0.581-1.353,1.01-2.195,1.288v-1.542
			c0.443-0.145,0.925-0.42,1.445-0.825c0.52-0.405,0.876-0.878,1.07-1.418h1.378V106.727z"/>
	</g>
	<g>
		<path fill="#6D6E71" d="M234.833,117.8l-5.693-14.125h3.924l2.66,7.209l0.771,2.407c0.204-0.612,0.333-1.015,0.386-1.21
			c0.124-0.399,0.257-0.798,0.399-1.197l2.687-7.209h3.844l-5.613,14.125H234.833z"/>
		<path fill="#6D6E71" d="M245.553,115.973c0.859,0,1.53,0.306,2.014,0.919c0.576,0.726,0.865,1.929,0.865,3.61
			c0,1.677-0.291,2.882-0.871,3.616c-0.48,0.604-1.149,0.907-2.008,0.907c-0.862,0-1.558-0.332-2.086-0.995
			c-0.528-0.663-0.792-1.845-0.792-3.546c0-1.669,0.29-2.87,0.871-3.604C244.025,116.275,244.694,115.973,245.553,115.973z
			 M245.553,117.381c-0.206,0-0.389,0.065-0.55,0.197c-0.161,0.131-0.286,0.366-0.375,0.704c-0.117,0.439-0.175,1.179-0.175,2.219
			s0.052,1.754,0.157,2.144c0.104,0.389,0.236,0.648,0.396,0.777c0.159,0.129,0.341,0.193,0.547,0.193s0.389-0.065,0.55-0.196
			s0.286-0.366,0.375-0.705c0.117-0.435,0.175-1.173,0.175-2.213s-0.052-1.754-0.157-2.144s-0.237-0.649-0.396-0.78
			C245.941,117.447,245.758,117.381,245.553,117.381z"/>
		<path fill="#6D6E71" d="M252.433,105.148v1.578h-5.956c0.064-0.597,0.258-1.162,0.58-1.696c0.323-0.534,0.959-1.243,1.911-2.125
			c0.766-0.713,1.236-1.197,1.409-1.451c0.233-0.351,0.351-0.697,0.351-1.04c0-0.379-0.102-0.67-0.305-0.874
			c-0.204-0.204-0.485-0.306-0.844-0.306c-0.354,0-0.637,0.107-0.847,0.321c-0.209,0.213-0.331,0.568-0.363,1.064l-1.693-0.169
			c0.101-0.935,0.417-1.606,0.949-2.013c0.532-0.407,1.197-0.611,1.996-0.611c0.875,0,1.562,0.236,2.062,0.708
			c0.5,0.472,0.75,1.058,0.75,1.759c0,0.399-0.072,0.779-0.215,1.14c-0.143,0.361-0.37,0.739-0.68,1.134
			c-0.206,0.262-0.576,0.639-1.112,1.131s-0.876,0.818-1.019,0.979s-0.259,0.318-0.348,0.472H252.433z"/>
	</g>
	<g>
		<path fill="#6D6E71" d="M45.153,227.329l-5.693-14.125h3.924l2.66,7.209l0.771,2.407c0.204-0.612,0.333-1.015,0.386-1.21
			c0.124-0.399,0.257-0.798,0.399-1.197l2.687-7.209h3.844l-5.613,14.125H45.153z"/>
		<path fill="#6D6E71" d="M57.349,234.402h-1.699v-6.403c-0.621,0.581-1.353,1.01-2.195,1.288v-1.542
			c0.443-0.145,0.925-0.42,1.445-0.825c0.52-0.405,0.876-0.878,1.07-1.418h1.378V234.402z"/>
		<path fill="#6D6E71" d="M62.76,207.355c0.859,0,1.53,0.306,2.014,0.919c0.576,0.726,0.865,1.929,0.865,3.61
			c0,1.677-0.291,2.882-0.871,3.616c-0.48,0.604-1.149,0.907-2.008,0.907c-0.862,0-1.558-0.332-2.086-0.995
			c-0.528-0.663-0.792-1.845-0.792-3.546c0-1.669,0.29-2.87,0.871-3.604C61.232,207.657,61.902,207.355,62.76,207.355z
			 M62.76,208.764c-0.206,0-0.389,0.065-0.55,0.197c-0.161,0.131-0.286,0.366-0.375,0.704c-0.117,0.439-0.175,1.179-0.175,2.219
			s0.052,1.754,0.157,2.144c0.104,0.389,0.236,0.648,0.396,0.777c0.159,0.129,0.341,0.193,0.547,0.193s0.389-0.065,0.55-0.196
			s0.286-0.366,0.375-0.705c0.117-0.435,0.175-1.173,0.175-2.213s-0.052-1.754-0.157-2.144s-0.237-0.649-0.396-0.78
			C63.148,208.829,62.966,208.764,62.76,208.764z"/>
	</g>
	<g>
		<path fill="#6D6E71" d="M138.824,227.329l-5.693-14.125h3.924l2.66,7.209l0.771,2.407c0.204-0.612,0.333-1.015,0.386-1.21
			c0.124-0.399,0.257-0.798,0.399-1.197l2.687-7.209h3.844l-5.613,14.125H138.824z"/>
		<path fill="#6D6E71" d="M151.019,234.402h-1.699v-6.403c-0.621,0.581-1.353,1.01-2.195,1.288v-1.542
			c0.443-0.145,0.925-0.42,1.445-0.825c0.52-0.405,0.876-0.878,1.07-1.418h1.378V234.402z"/>
		<path fill="#6D6E71" d="M157.906,216.255h-1.699v-6.403c-0.621,0.581-1.353,1.01-2.195,1.288v-1.542
			c0.443-0.145,0.925-0.42,1.445-0.825c0.52-0.405,0.876-0.878,1.07-1.418h1.378V216.255z"/>
	</g>
	<g>
		<path fill="#6D6E71" d="M233.396,227.329l-5.693-14.125h3.924l2.66,7.209l0.771,2.407c0.204-0.612,0.333-1.015,0.386-1.21
			c0.124-0.399,0.257-0.798,0.399-1.197l2.687-7.209h3.844l-5.613,14.125H233.396z"/>
		<path fill="#6D6E71" d="M245.592,234.402h-1.699v-6.403c-0.621,0.581-1.353,1.01-2.195,1.288v-1.542
			c0.443-0.145,0.925-0.42,1.445-0.825c0.52-0.405,0.876-0.878,1.07-1.418h1.378V234.402z"/>
		<path fill="#6D6E71" d="M253.87,214.677v1.578h-5.956c0.064-0.597,0.258-1.162,0.58-1.696c0.323-0.534,0.959-1.243,1.911-2.125
			c0.766-0.713,1.236-1.197,1.409-1.451c0.233-0.351,0.351-0.697,0.351-1.04c0-0.379-0.102-0.67-0.305-0.874
			c-0.204-0.204-0.485-0.306-0.844-0.306c-0.354,0-0.637,0.107-0.847,0.321c-0.209,0.213-0.331,0.568-0.363,1.064l-1.693-0.169
			c0.101-0.935,0.417-1.606,0.949-2.013c0.532-0.407,1.197-0.611,1.996-0.611c0.875,0,1.562,0.236,2.062,0.708
			c0.5,0.472,0.75,1.058,0.75,1.759c0,0.399-0.072,0.779-0.215,1.14c-0.143,0.361-0.37,0.739-0.68,1.134
			c-0.206,0.262-0.576,0.639-1.112,1.131s-0.876,0.818-1.019,0.979s-0.259,0.318-0.348,0.472H253.87z"/>
	</g>
	<g>
		<path fill="#6D6E71" d="M34.12,450.768l-5.693-14.126h3.924l2.66,7.209l0.771,2.408c0.204-0.612,0.333-1.016,0.386-1.211
			c0.124-0.398,0.257-0.798,0.399-1.197l2.687-7.209h3.844l-5.613,14.126H34.12z"/>
		<path fill="#6D6E71" d="M47.15,460.446h-1.167c-0.617-0.931-1.086-1.898-1.409-2.902c-0.323-1.003-0.484-1.975-0.484-2.914
			c0-1.164,0.2-2.268,0.599-3.307c0.347-0.903,0.786-1.736,1.318-2.498h1.161c-0.552,1.222-0.932,2.261-1.14,3.117
			c-0.208,0.857-0.312,1.765-0.312,2.725c0,0.66,0.062,1.338,0.185,2.031s0.291,1.352,0.505,1.977
			C46.547,459.087,46.795,459.677,47.15,460.446z"/>
		<path fill="#6D6E71" d="M48.444,457.841v-8.864h2.678l1.608,6.046l1.59-6.046h2.685v8.864h-1.663v-6.978l-1.76,6.978H51.86
			l-1.753-6.978v6.978H48.444z"/>
		<path fill="#6D6E71" d="M58.578,455.477v-1.699h3.338v1.699H58.578z"/>
		<path fill="#6D6E71" d="M66.88,457.841h-1.699v-6.403c-0.621,0.581-1.353,1.01-2.195,1.288v-1.542
			c0.443-0.146,0.925-0.421,1.445-0.825c0.52-0.405,0.876-0.878,1.07-1.418h1.378V457.841z"/>
		<path fill="#6D6E71" d="M69.31,460.446c0.335-0.717,0.571-1.268,0.708-1.65c0.137-0.383,0.264-0.824,0.381-1.324
			c0.117-0.5,0.204-0.975,0.26-1.424c0.056-0.449,0.084-0.91,0.084-1.381c0-0.96-0.103-1.867-0.308-2.725
			c-0.206-0.856-0.584-1.896-1.137-3.117h1.155c0.608,0.867,1.081,1.786,1.418,2.758c0.336,0.971,0.505,1.957,0.505,2.957
			c0,0.842-0.133,1.744-0.399,2.708c-0.302,1.081-0.8,2.146-1.493,3.198H69.31z"/>
		<path fill="#6D6E71" d="M47.609,432.382c0.859,0,1.53,0.307,2.014,0.919c0.576,0.726,0.865,1.929,0.865,3.61
			c0,1.676-0.291,2.882-0.871,3.615c-0.48,0.604-1.149,0.907-2.008,0.907c-0.862,0-1.558-0.331-2.086-0.995
			c-0.528-0.662-0.792-1.845-0.792-3.546c0-1.669,0.29-2.87,0.871-3.604C46.081,432.685,46.75,432.382,47.609,432.382z
			 M47.609,433.79c-0.206,0-0.389,0.066-0.55,0.197c-0.161,0.131-0.286,0.365-0.375,0.704c-0.117,0.439-0.175,1.179-0.175,2.22
			c0,1.039,0.052,1.754,0.157,2.143c0.104,0.39,0.236,0.648,0.396,0.777c0.159,0.129,0.341,0.193,0.547,0.193
			s0.389-0.065,0.55-0.196s0.286-0.366,0.375-0.704c0.117-0.436,0.175-1.174,0.175-2.213c0-1.041-0.052-1.755-0.157-2.145
			c-0.105-0.389-0.237-0.648-0.396-0.779S47.814,433.79,47.609,433.79z"/>
	</g>
	<g>
		<path fill="#6D6E71" d="M128.038,450.768l-5.693-14.126h3.924l2.66,7.209l0.771,2.408c0.204-0.612,0.333-1.016,0.386-1.211
			c0.124-0.398,0.257-0.798,0.399-1.197l2.687-7.209h3.844l-5.613,14.126H128.038z"/>
		<path fill="#6D6E71" d="M142.069,460.446h-1.167c-0.617-0.931-1.086-1.898-1.409-2.902c-0.323-1.003-0.484-1.975-0.484-2.914
			c0-1.164,0.2-2.268,0.599-3.307c0.347-0.903,0.786-1.736,1.318-2.498h1.161c-0.552,1.222-0.932,2.261-1.14,3.117
			c-0.208,0.857-0.312,1.765-0.312,2.725c0,0.66,0.062,1.338,0.185,2.031s0.291,1.352,0.505,1.977
			C141.467,459.087,141.714,459.677,142.069,460.446z"/>
		<path fill="#6D6E71" d="M143.364,457.841v-8.864h2.678l1.608,6.046l1.59-6.046h2.685v8.864h-1.663v-6.978l-1.76,6.978h-1.723
			l-1.753-6.978v6.978H143.364z"/>
		<path fill="#6D6E71" d="M153.497,455.477v-1.699h3.338v1.699H153.497z"/>
		<path fill="#6D6E71" d="M161.799,457.841H160.1v-6.403c-0.621,0.581-1.353,1.01-2.195,1.288v-1.542
			c0.443-0.146,0.925-0.421,1.445-0.825c0.52-0.405,0.876-0.878,1.07-1.418h1.378V457.841z"/>
		<path fill="#6D6E71" d="M164.229,460.446c0.335-0.717,0.571-1.268,0.708-1.65c0.137-0.383,0.264-0.824,0.381-1.324
			c0.117-0.5,0.204-0.975,0.26-1.424c0.056-0.449,0.084-0.91,0.084-1.381c0-0.96-0.103-1.867-0.308-2.725
			c-0.206-0.856-0.584-1.896-1.137-3.117h1.155c0.608,0.867,1.081,1.786,1.418,2.758c0.336,0.971,0.505,1.957,0.505,2.957
			c0,0.842-0.133,1.744-0.399,2.708c-0.302,1.081-0.8,2.146-1.493,3.198H164.229z"/>
		<path fill="#6D6E71" d="M143.294,441.925h-1.699v-6.403c-0.621,0.581-1.353,1.01-2.195,1.288v-1.542
			c0.443-0.146,0.925-0.421,1.445-0.825c0.52-0.405,0.876-0.878,1.07-1.418h1.378V441.925z"/>
	</g>
	<g>
		<path fill="#6D6E71" d="M222.673,450.768l-5.693-14.126h3.924l2.66,7.209l0.771,2.408c0.204-0.612,0.333-1.016,0.386-1.211
			c0.124-0.398,0.257-0.798,0.399-1.197l2.687-7.209h3.844l-5.613,14.126H222.673z"/>
		<path fill="#6D6E71" d="M236.704,460.446h-1.167c-0.617-0.931-1.086-1.898-1.409-2.902c-0.323-1.003-0.484-1.975-0.484-2.914
			c0-1.164,0.2-2.268,0.599-3.307c0.347-0.903,0.786-1.736,1.318-2.498h1.161c-0.552,1.222-0.932,2.261-1.14,3.117
			c-0.208,0.857-0.312,1.765-0.312,2.725c0,0.66,0.062,1.338,0.185,2.031s0.291,1.352,0.505,1.977
			C236.102,459.087,236.349,459.677,236.704,460.446z"/>
		<path fill="#6D6E71" d="M237.999,457.841v-8.864h2.678l1.608,6.046l1.59-6.046h2.685v8.864h-1.663v-6.978l-1.76,6.978h-1.723
			l-1.753-6.978v6.978H237.999z"/>
		<path fill="#6D6E71" d="M248.132,455.477v-1.699h3.338v1.699H248.132z"/>
		<path fill="#6D6E71" d="M256.434,457.841h-1.699v-6.403c-0.621,0.581-1.353,1.01-2.195,1.288v-1.542
			c0.443-0.146,0.925-0.421,1.445-0.825c0.52-0.405,0.876-0.878,1.07-1.418h1.378V457.841z"/>
		<path fill="#6D6E71" d="M258.864,460.446c0.335-0.717,0.571-1.268,0.708-1.65c0.137-0.383,0.264-0.824,0.381-1.324
			c0.117-0.5,0.204-0.975,0.26-1.424c0.056-0.449,0.084-0.91,0.084-1.381c0-0.96-0.103-1.867-0.308-2.725
			c-0.206-0.856-0.584-1.896-1.137-3.117h1.155c0.608,0.867,1.081,1.786,1.418,2.758c0.336,0.971,0.505,1.957,0.505,2.957
			c0,0.842-0.133,1.744-0.399,2.708c-0.302,1.081-0.8,2.146-1.493,3.198H258.864z"/>
		<path fill="#6D6E71" d="M240.21,439.736v1.578h-5.956c0.064-0.597,0.258-1.162,0.58-1.695c0.323-0.535,0.959-1.243,1.911-2.126
			c0.766-0.714,1.236-1.197,1.409-1.451c0.233-0.351,0.351-0.697,0.351-1.04c0-0.379-0.102-0.67-0.305-0.873
			c-0.204-0.204-0.485-0.307-0.844-0.307c-0.354,0-0.637,0.107-0.847,0.321c-0.209,0.214-0.331,0.568-0.363,1.063l-1.693-0.169
			c0.101-0.935,0.417-1.606,0.949-2.013c0.532-0.408,1.197-0.611,1.996-0.611c0.875,0,1.562,0.236,2.062,0.707
			c0.5,0.473,0.75,1.059,0.75,1.76c0,0.399-0.072,0.779-0.215,1.14s-0.37,0.739-0.68,1.134c-0.206,0.262-0.576,0.639-1.112,1.131
			s-0.876,0.818-1.019,0.979s-0.259,0.318-0.348,0.472H240.21z"/>
	</g>
	<line fill="none" stroke="#4EBDCD" stroke-width="3" stroke-miterlimit="10" x1="93.55" y1="48.517" x2="93.55" y2="495.183"/>
	<line fill="none" stroke="#4EBDCD" stroke-width="3" stroke-miterlimit="10" x1="190.473" y1="48.517" x2="190.473" y2="495.183"/>
</g>
<g id="Layer_2">
</g>
</svg>
