<?xml version="1.0" encoding="utf-8"?>
<!-- Generator: Adobe Illustrator 15.1.0, SVG Export Plug-In . SVG Version: 6.00 Build 0)  -->
<!DOCTYPE svg PUBLIC "-//W3C//DTD SVG 1.1//EN" "http://www.w3.org/Graphics/SVG/1.1/DTD/svg11.dtd">
<svg version="1.1" xmlns="http://www.w3.org/2000/svg" xmlns:xlink="http://www.w3.org/1999/xlink" x="0px" y="0px"
	 width="284.716px" height="499.555px" viewBox="0 0 284.716 499.555" enable-background="new 0 0 284.716 499.555"
	 xml:space="preserve">
<g id="Layer_1">
	<path fill="none" stroke="#7BCCD6" stroke-width="3.6969" stroke-miterlimit="10" d="M282.626,485.191c0,6.628-7.496,12-10.569,12
		H13.877c-3.071,0-10.567-5.372-10.567-12V14.385c0-6.627,7.496-12,10.567-12h258.18c3.073,0,10.569,5.373,10.569,12V485.191z"/>
	<line fill="none" stroke="#4EBDCD" stroke-width="3.7" stroke-miterlimit="10" x1="3.309" y1="163.432" x2="283.45" y2="163.432"/>
	<line fill="none" stroke="#4EBDCD" stroke-width="3.7" stroke-miterlimit="10" x1="3.309" y1="274.098" x2="283.45" y2="274.098"/>
	<line fill="none" stroke="#4EBDCD" stroke-width="3.7" stroke-miterlimit="10" x1="3.309" y1="384.765" x2="283.45" y2="384.765"/>
	<g>
		<path fill="#6D6E71" stroke="#6D6E71" stroke-width="1.2909" d="M140.896,307.96c3.328,0,5.669,2.25,5.669,5.401
			c0,3.149-2.341,5.309-5.669,5.309c-3.24,0-5.672-2.07-5.672-5.399C135.224,310.122,137.656,307.96,140.896,307.96z"/>
		<path fill="#6D6E71" stroke="#6D6E71" stroke-width="1.2909" d="M140.896,326.589c3.328,0,5.669,2.25,5.669,5.399
			c0,3.15-2.341,5.312-5.669,5.312c-3.24,0-5.672-2.071-5.672-5.401C135.224,328.75,137.656,326.589,140.896,326.589z"/>
		<path fill="#6D6E71" stroke="#6D6E71" stroke-width="1.2909" d="M140.896,345.219c3.328,0,5.669,2.25,5.669,5.399
			s-2.341,5.31-5.669,5.31c-3.24,0-5.672-2.069-5.672-5.4C135.224,347.378,137.656,345.219,140.896,345.219z"/>
	</g>
	<path fill="#4EBDCD" d="M281.294,52.769H3.311V14.385c0-6.627,7.483-12,10.54-12h261.907c3.057,0,5.536,5.373,5.536,12V52.769z"/>
	<g>
		<path fill="#FFFFFF" d="M46.193,44.93L35.738,15.68h6.404l7.402,21.648l7.163-21.648h6.264L52.498,44.93H46.193z"/>
		<path fill="#FFFFFF" d="M74.115,8.945c1.772,0,3.158,0.633,4.157,1.898c1.19,1.497,1.785,3.982,1.785,7.454
			c0,3.463-0.599,5.951-1.798,7.466c-0.99,1.249-2.372,1.873-4.145,1.873c-1.782,0-3.218-0.685-4.308-2.054
			c-1.091-1.369-1.636-3.811-1.636-7.323c0-3.446,0.599-5.927,1.798-7.441C70.96,9.569,72.342,8.945,74.115,8.945z M74.115,11.854
			c-0.425,0-0.804,0.135-1.137,0.406c-0.333,0.271-0.591,0.755-0.774,1.455c-0.24,0.906-0.361,2.434-0.361,4.582
			c0,2.146,0.108,3.622,0.324,4.426c0.217,0.803,0.489,1.338,0.818,1.604c0.328,0.267,0.705,0.399,1.13,0.399
			c0.424,0,0.803-0.135,1.136-0.406c0.333-0.27,0.592-0.755,0.774-1.454c0.241-0.899,0.362-2.423,0.362-4.569
			c0-2.148-0.109-3.623-0.325-4.427c-0.217-0.804-0.489-1.34-0.817-1.61C74.916,11.989,74.539,11.854,74.115,11.854z"/>
	</g>
	<g>
		<path fill="#FFFFFF" d="M138.263,45.608l-10.455-29.25h6.404l7.402,21.648l7.163-21.648h6.265l-10.475,29.25H138.263z"/>
		<path fill="#FFFFFF" d="M169.23,28.002h-3.508V14.78c-1.282,1.198-2.793,2.085-4.532,2.659v-3.185
			c0.915-0.299,1.91-0.867,2.983-1.704c1.074-0.836,1.811-1.812,2.21-2.928h2.847V28.002z"/>
	</g>
	<g>
		<path fill="#FFFFFF" d="M235.705,44.481l-10.455-29.25h6.404l7.402,21.648l7.163-21.648h6.264l-10.474,29.25H235.705z"/>
		<path fill="#FFFFFF" d="M269.544,23.616v3.259h-12.298c0.134-1.231,0.533-2.399,1.199-3.502c0.665-1.103,1.981-2.565,3.945-4.389
			c1.581-1.474,2.551-2.472,2.909-2.997c0.482-0.724,0.725-1.439,0.725-2.146c0-0.783-0.211-1.385-0.631-1.805
			s-1.001-0.631-1.742-0.631c-0.732,0-1.314,0.221-1.748,0.662c-0.433,0.441-0.683,1.173-0.749,2.197l-3.496-0.35
			c0.208-1.931,0.861-3.317,1.96-4.158c1.1-0.84,2.473-1.261,4.121-1.261c1.806,0,3.225,0.487,4.258,1.461
			c1.031,0.974,1.547,2.185,1.547,3.634c0,0.824-0.146,1.608-0.443,2.354c-0.295,0.744-0.764,1.525-1.404,2.341
			c-0.424,0.541-1.189,1.319-2.297,2.335c-1.106,1.016-1.809,1.689-2.104,2.022c-0.296,0.333-0.535,0.657-0.718,0.974H269.544z"/>
	</g>
	<g>
		<path fill="#6D6E71" d="M47.684,123.364l-8.539-21.188h5.885l3.99,10.813l1.158,3.611c0.305-0.918,0.498-1.523,0.578-1.815
			c0.186-0.599,0.385-1.197,0.599-1.796l4.029-10.813h5.767l-8.42,21.188H47.684z"/>
		<path fill="#6D6E71" d="M63.763,119.623c1.288,0,2.295,0.459,3.021,1.378c0.864,1.089,1.297,2.894,1.297,5.415
			c0,2.515-0.436,4.323-1.306,5.424c-0.72,0.906-1.724,1.36-3.012,1.36c-1.293,0-2.336-0.497-3.129-1.492
			c-0.792-0.994-1.188-2.768-1.188-5.319c0-2.504,0.435-4.305,1.306-5.406C61.471,120.076,62.476,119.623,63.763,119.623z
			 M63.763,121.735c-0.308,0-0.583,0.099-0.825,0.296c-0.242,0.195-0.43,0.548-0.562,1.056c-0.176,0.659-0.263,1.769-0.263,3.329
			c0,1.56,0.078,2.631,0.235,3.215s0.354,0.973,0.594,1.166s0.513,0.289,0.82,0.289c0.309,0,0.584-0.098,0.825-0.294
			c0.242-0.196,0.43-0.549,0.562-1.057c0.176-0.653,0.264-1.76,0.264-3.319c0-1.561-0.078-2.632-0.236-3.216
			c-0.157-0.583-0.355-0.974-0.594-1.169C64.346,121.833,64.071,121.735,63.763,121.735z"/>
		<path fill="#6D6E71" d="M69.784,93.403c1.288,0,2.295,0.46,3.021,1.379c0.864,1.088,1.297,2.893,1.297,5.415
			c0,2.515-0.436,4.323-1.306,5.423c-0.72,0.907-1.724,1.361-3.012,1.361c-1.294,0-2.337-0.497-3.129-1.492
			c-0.792-0.994-1.188-2.768-1.188-5.319c0-2.503,0.436-4.306,1.307-5.406C67.492,93.857,68.496,93.403,69.784,93.403z
			 M69.784,95.516c-0.309,0-0.583,0.099-0.825,0.295c-0.242,0.197-0.43,0.549-0.562,1.057c-0.176,0.659-0.263,1.769-0.263,3.329
			c0,1.56,0.079,2.632,0.236,3.215c0.156,0.584,0.354,0.972,0.594,1.165s0.512,0.291,0.82,0.291s0.584-0.099,0.825-0.295
			c0.242-0.196,0.43-0.549,0.562-1.057c0.176-0.652,0.264-1.76,0.264-3.319c0-1.561-0.079-2.632-0.236-3.216
			s-0.355-0.973-0.594-1.17C70.366,95.615,70.093,95.516,69.784,95.516z"/>
	</g>
	<g>
		<path fill="#6D6E71" d="M137.802,121.368l-8.54-21.188h5.886l3.99,10.813l1.157,3.611c0.306-0.918,0.499-1.523,0.579-1.815
			c0.186-0.599,0.385-1.197,0.598-1.796l4.03-10.813h5.767l-8.42,21.188H137.802z"/>
		<path fill="#6D6E71" d="M153.881,118.628c1.288,0,2.295,0.459,3.021,1.378c0.864,1.089,1.297,2.894,1.297,5.415
			c0,2.515-0.436,4.323-1.306,5.424c-0.72,0.906-1.724,1.36-3.012,1.36c-1.294,0-2.337-0.497-3.129-1.492
			c-0.792-0.994-1.188-2.768-1.188-5.319c0-2.504,0.436-4.305,1.307-5.406C151.589,119.081,152.593,118.628,153.881,118.628z
			 M153.881,120.74c-0.309,0-0.583,0.099-0.825,0.296c-0.242,0.195-0.43,0.548-0.562,1.056c-0.176,0.659-0.263,1.769-0.263,3.329
			c0,1.56,0.079,2.631,0.236,3.215c0.156,0.584,0.354,0.973,0.594,1.166s0.512,0.289,0.82,0.289s0.584-0.098,0.825-0.294
			c0.242-0.196,0.43-0.549,0.562-1.057c0.176-0.653,0.264-1.76,0.264-3.319c0-1.561-0.079-2.632-0.236-3.216
			c-0.157-0.583-0.355-0.974-0.594-1.169C154.463,120.839,154.189,120.74,153.881,120.74z"/>
		<path fill="#6D6E71" d="M162.115,104.759h-2.549v-9.605c-0.931,0.871-2.028,1.515-3.292,1.932v-2.312
			c0.665-0.218,1.388-0.631,2.168-1.238s1.314-1.316,1.605-2.127h2.067V104.759z"/>
	</g>
	<g>
		<path fill="#6D6E71" d="M234.314,123.083l-8.539-21.188h5.886l3.99,10.813l1.157,3.611c0.306-0.918,0.499-1.523,0.579-1.815
			c0.186-0.599,0.385-1.197,0.598-1.796l4.03-10.813h5.767l-8.42,21.188H234.314z"/>
		<path fill="#6D6E71" d="M250.394,119.342c1.288,0,2.294,0.459,3.021,1.378c0.864,1.089,1.297,2.894,1.297,5.415
			c0,2.515-0.436,4.323-1.306,5.424c-0.72,0.906-1.724,1.36-3.012,1.36c-1.294,0-2.337-0.497-3.129-1.492
			c-0.792-0.994-1.188-2.768-1.188-5.319c0-2.504,0.436-4.305,1.307-5.406C248.102,119.795,249.106,119.342,250.394,119.342z
			 M250.394,121.454c-0.309,0-0.583,0.099-0.825,0.296c-0.242,0.195-0.43,0.548-0.562,1.056c-0.176,0.659-0.263,1.769-0.263,3.329
			c0,1.56,0.078,2.631,0.235,3.215s0.355,0.973,0.595,1.166c0.238,0.193,0.512,0.289,0.82,0.289c0.308,0,0.583-0.098,0.825-0.294
			s0.43-0.549,0.562-1.057c0.175-0.653,0.263-1.76,0.263-3.319c0-1.561-0.078-2.632-0.235-3.216
			c-0.158-0.583-0.355-0.974-0.594-1.169C250.976,121.553,250.702,121.454,250.394,121.454z"/>
		<path fill="#6D6E71" d="M260.714,104.106v2.367h-8.934c0.097-0.896,0.387-1.744,0.87-2.544c0.484-0.802,1.439-1.864,2.866-3.188
			c1.149-1.07,1.854-1.796,2.114-2.177c0.35-0.526,0.525-1.046,0.525-1.56c0-0.568-0.153-1.006-0.458-1.311
			c-0.306-0.306-0.728-0.459-1.266-0.459c-0.531,0-0.955,0.16-1.27,0.481c-0.314,0.32-0.496,0.853-0.544,1.596l-2.54-0.254
			c0.151-1.402,0.626-2.409,1.424-3.02c0.799-0.611,1.796-0.917,2.993-0.917c1.312,0,2.344,0.354,3.093,1.062
			c0.75,0.708,1.125,1.587,1.125,2.64c0,0.599-0.107,1.168-0.322,1.709s-0.555,1.108-1.021,1.701
			c-0.309,0.393-0.864,0.958-1.668,1.695c-0.805,0.738-1.314,1.229-1.529,1.47c-0.214,0.241-0.388,0.478-0.521,0.708H260.714z"/>
	</g>
	<g>
		<path fill="#6D6E71" d="M46.855,228.427l-8.539-21.188h5.886l3.99,10.812l1.157,3.611c0.306-0.918,0.499-1.522,0.579-1.814
			c0.186-0.6,0.385-1.198,0.598-1.797l4.03-10.812h5.767l-8.42,21.188H46.855z"/>
		<path fill="#6D6E71" d="M65.148,239.037h-2.549v-9.605c-0.931,0.871-2.028,1.515-3.292,1.933v-2.313
			c0.665-0.218,1.388-0.63,2.168-1.237c0.78-0.608,1.314-1.317,1.605-2.127h2.067V239.037z"/>
		<path fill="#6D6E71" d="M73.266,198.467c1.288,0,2.294,0.459,3.02,1.378c0.865,1.089,1.298,2.894,1.298,5.415
			c0,2.515-0.437,4.323-1.306,5.424c-0.721,0.906-1.724,1.36-3.012,1.36c-1.294,0-2.337-0.497-3.129-1.492
			c-0.792-0.994-1.188-2.768-1.188-5.319c0-2.503,0.435-4.305,1.306-5.405C70.974,198.92,71.978,198.467,73.266,198.467z
			 M73.266,200.579c-0.309,0-0.584,0.099-0.826,0.296c-0.241,0.196-0.429,0.548-0.562,1.056c-0.176,0.659-0.263,1.77-0.263,3.329
			s0.078,2.632,0.235,3.216c0.157,0.583,0.354,0.972,0.595,1.165c0.238,0.193,0.512,0.29,0.82,0.29c0.308,0,0.583-0.099,0.825-0.295
			c0.241-0.196,0.429-0.549,0.562-1.057c0.175-0.652,0.263-1.76,0.263-3.319s-0.078-2.632-0.236-3.216
			c-0.157-0.583-0.354-0.973-0.594-1.169C73.848,200.678,73.574,200.579,73.266,200.579z"/>
	</g>
	<g>
		<path fill="#6D6E71" d="M138.088,227.947l-8.539-21.188h5.886l3.99,10.812l1.157,3.611c0.306-0.918,0.499-1.522,0.578-1.814
			c0.187-0.6,0.386-1.198,0.599-1.797l4.029-10.812h5.767l-8.42,21.188H138.088z"/>
		<path fill="#6D6E71" d="M156.381,238.557h-2.549v-9.605c-0.931,0.871-2.028,1.515-3.292,1.933v-2.313
			c0.665-0.218,1.388-0.63,2.168-1.237c0.779-0.608,1.314-1.317,1.605-2.127h2.067V238.557z"/>
		<path fill="#6D6E71" d="M166.712,211.337h-2.549v-9.605c-0.932,0.871-2.029,1.515-3.293,1.933v-2.313
			c0.666-0.217,1.389-0.631,2.168-1.237c0.78-0.608,1.315-1.317,1.605-2.127h2.068V211.337z"/>
	</g>
	<g>
		<path fill="#6D6E71" d="M233.036,227.877l-8.54-21.188h5.887l3.99,10.812l1.156,3.611c0.306-0.918,0.499-1.522,0.579-1.814
			c0.187-0.6,0.386-1.198,0.599-1.797l4.029-10.812h5.767l-8.42,21.188H233.036z"/>
		<path fill="#6D6E71" d="M251.329,238.487h-2.549v-9.605c-0.931,0.871-2.029,1.515-3.292,1.933v-2.313
			c0.664-0.218,1.388-0.63,2.168-1.237c0.779-0.608,1.314-1.317,1.605-2.127h2.067V238.487z"/>
		<path fill="#6D6E71" d="M263.746,208.9v2.367h-8.934c0.097-0.896,0.387-1.743,0.87-2.544c0.483-0.802,1.438-1.864,2.866-3.188
			c1.148-1.07,1.854-1.796,2.113-2.177c0.35-0.525,0.525-1.046,0.525-1.56c0-0.568-0.152-1.005-0.457-1.311
			c-0.306-0.306-0.728-0.459-1.266-0.459c-0.532,0-0.955,0.161-1.271,0.481c-0.313,0.32-0.495,0.853-0.544,1.597l-2.539-0.255
			c0.15-1.402,0.626-2.409,1.424-3.02s1.796-0.916,2.993-0.916c1.312,0,2.343,0.354,3.093,1.062c0.75,0.707,1.125,1.587,1.125,2.639
			c0,0.599-0.108,1.169-0.322,1.709c-0.215,0.541-0.555,1.108-1.021,1.701c-0.309,0.393-0.864,0.959-1.669,1.696
			c-0.804,0.737-1.313,1.228-1.528,1.469c-0.215,0.242-0.388,0.478-0.521,0.708H263.746z"/>
	</g>
	<g>
		<path fill="#6D6E71" d="M28.22,446.336l-8.54-21.188h5.886l3.99,10.813l1.157,3.612c0.306-0.919,0.499-1.523,0.579-1.816
			c0.186-0.598,0.385-1.196,0.598-1.796l4.03-10.813h5.767l-8.42,21.188H28.22z"/>
		<path fill="#6D6E71" d="M47.765,460.855h-1.75c-0.926-1.396-1.63-2.848-2.113-4.354c-0.484-1.505-0.727-2.962-0.727-4.371
			c0-1.746,0.3-3.401,0.898-4.96c0.52-1.355,1.18-2.604,1.977-3.747h1.742c-0.828,1.833-1.398,3.392-1.71,4.676
			c-0.312,1.286-0.467,2.647-0.467,4.087c0,0.99,0.092,2.007,0.276,3.047s0.437,2.027,0.758,2.965
			C46.86,458.816,47.232,459.701,47.765,460.855z"/>
		<path fill="#6D6E71" d="M49.706,456.947v-13.296h4.018l2.412,9.068l2.386-9.068h4.027v13.296h-2.494v-10.466l-2.64,10.466H54.83
			l-2.63-10.466v10.466H49.706z"/>
		<path fill="#6D6E71" d="M64.906,453.401v-2.549h5.007v2.549H64.906z"/>
		<path fill="#6D6E71" d="M77.359,456.947h-2.549v-9.604c-0.931,0.871-2.028,1.514-3.292,1.932v-2.312
			c0.665-0.219,1.388-0.632,2.168-1.238c0.78-0.607,1.314-1.316,1.605-2.127h2.067V456.947z"/>
		<path fill="#6D6E71" d="M81.005,460.855c0.502-1.075,0.856-1.901,1.062-2.476c0.206-0.574,0.396-1.236,0.571-1.986
			s0.305-1.462,0.391-2.136c0.084-0.674,0.126-1.365,0.126-2.071c0-1.439-0.153-2.801-0.462-4.087
			c-0.309-1.284-0.877-2.843-1.705-4.676h1.732c0.912,1.301,1.621,2.679,2.127,4.137c0.504,1.456,0.757,2.936,0.757,4.436
			c0,1.263-0.2,2.616-0.599,4.062c-0.453,1.622-1.2,3.221-2.24,4.798H81.005z"/>
		<path fill="#6D6E71" d="M48.453,418.758c1.288,0,2.295,0.46,3.021,1.379c0.864,1.088,1.297,2.893,1.297,5.415
			c0,2.514-0.436,4.323-1.306,5.423c-0.72,0.906-1.724,1.361-3.012,1.361c-1.294,0-2.337-0.497-3.129-1.493
			c-0.792-0.993-1.188-2.767-1.188-5.319c0-2.503,0.436-4.305,1.307-5.406C46.161,419.212,47.165,418.758,48.453,418.758z
			 M48.453,420.871c-0.309,0-0.583,0.1-0.825,0.296s-0.43,0.548-0.562,1.057c-0.176,0.658-0.263,1.768-0.263,3.329
			c0,1.559,0.079,2.631,0.236,3.214c0.156,0.584,0.354,0.973,0.594,1.166s0.512,0.29,0.82,0.29s0.584-0.099,0.825-0.294
			c0.242-0.197,0.43-0.55,0.562-1.057c0.176-0.653,0.264-1.761,0.264-3.319c0-1.562-0.079-2.632-0.236-3.217
			c-0.157-0.583-0.355-0.973-0.594-1.169C49.035,420.97,48.762,420.871,48.453,420.871z"/>
	</g>
	<g>
		<path fill="#6D6E71" d="M116.922,445.897l-8.539-21.188h5.886l3.99,10.813l1.157,3.612c0.306-0.919,0.499-1.523,0.578-1.816
			c0.187-0.598,0.386-1.196,0.599-1.796l4.03-10.813h5.766l-8.42,21.188H116.922z"/>
		<path fill="#6D6E71" d="M137.969,460.416h-1.75c-0.926-1.396-1.63-2.848-2.113-4.354c-0.484-1.505-0.726-2.962-0.726-4.371
			c0-1.746,0.3-3.401,0.897-4.96c0.521-1.355,1.18-2.604,1.977-3.747h1.742c-0.828,1.833-1.398,3.392-1.709,4.676
			c-0.312,1.286-0.468,2.647-0.468,4.087c0,0.99,0.093,2.007,0.276,3.047c0.186,1.04,0.438,2.027,0.758,2.965
			C137.065,458.376,137.437,459.261,137.969,460.416z"/>
		<path fill="#6D6E71" d="M139.91,456.507v-13.296h4.018l2.413,9.068l2.386-9.068h4.026v13.296h-2.494v-10.466l-2.64,10.466h-2.584
			l-2.631-10.466v10.466H139.91z"/>
		<path fill="#6D6E71" d="M155.11,452.961v-2.549h5.007v2.549H155.11z"/>
		<path fill="#6D6E71" d="M167.564,456.507h-2.549v-9.604c-0.932,0.871-2.029,1.514-3.293,1.932v-2.312
			c0.665-0.219,1.389-0.632,2.168-1.238c0.78-0.607,1.314-1.316,1.605-2.127h2.068V456.507z"/>
		<path fill="#6D6E71" d="M171.209,460.416c0.503-1.075,0.856-1.901,1.062-2.476c0.206-0.574,0.396-1.236,0.571-1.986
			c0.176-0.75,0.306-1.462,0.391-2.136c0.084-0.674,0.127-1.365,0.127-2.071c0-1.439-0.154-2.801-0.463-4.087
			c-0.309-1.284-0.877-2.843-1.705-4.676h1.732c0.912,1.301,1.621,2.679,2.127,4.137c0.505,1.456,0.758,2.936,0.758,4.436
			c0,1.263-0.2,2.616-0.6,4.062c-0.453,1.622-1.199,3.221-2.24,4.798H171.209z"/>
		<path fill="#6D6E71" d="M139.806,432.633h-2.549v-9.605c-0.931,0.872-2.028,1.516-3.292,1.933v-2.313
			c0.665-0.218,1.388-0.631,2.168-1.237c0.78-0.608,1.314-1.317,1.605-2.127h2.067V432.633z"/>
	</g>
	<g>
		<path fill="#6D6E71" d="M210.98,448.547l-8.539-21.188h5.886l3.99,10.813l1.157,3.612c0.306-0.919,0.499-1.523,0.579-1.816
			c0.186-0.598,0.385-1.196,0.598-1.796l4.03-10.813h5.767l-8.42,21.188H210.98z"/>
		<path fill="#6D6E71" d="M232.027,463.066h-1.75c-0.925-1.396-1.63-2.848-2.113-4.354c-0.484-1.505-0.726-2.962-0.726-4.371
			c0-1.746,0.299-3.401,0.897-4.96c0.521-1.355,1.18-2.604,1.978-3.747h1.741c-0.828,1.833-1.398,3.392-1.71,4.676
			c-0.311,1.286-0.467,2.647-0.467,4.087c0,0.99,0.092,2.007,0.277,3.047c0.184,1.04,0.436,2.027,0.757,2.965
			C231.124,461.027,231.495,461.912,232.027,463.066z"/>
		<path fill="#6D6E71" d="M233.97,459.158v-13.296h4.017l2.413,9.068l2.385-9.068h4.027v13.296h-2.494v-10.466l-2.64,10.466h-2.585
			l-2.63-10.466v10.466H233.97z"/>
		<path fill="#6D6E71" d="M249.169,455.612v-2.549h5.007v2.549H249.169z"/>
		<path fill="#6D6E71" d="M261.622,459.158h-2.549v-9.604c-0.931,0.871-2.028,1.514-3.292,1.932v-2.312
			c0.665-0.219,1.388-0.632,2.168-1.238c0.78-0.607,1.315-1.316,1.605-2.127h2.067V459.158z"/>
		<path fill="#6D6E71" d="M265.268,463.066c0.503-1.075,0.856-1.901,1.062-2.476c0.206-0.574,0.396-1.236,0.571-1.986
			c0.176-0.75,0.306-1.462,0.391-2.136c0.084-0.674,0.126-1.365,0.126-2.071c0-1.439-0.153-2.801-0.462-4.087
			c-0.308-1.284-0.876-2.843-1.705-4.676h1.732c0.913,1.301,1.622,2.679,2.127,4.137c0.505,1.456,0.757,2.936,0.757,4.436
			c0,1.263-0.199,2.616-0.599,4.062c-0.453,1.622-1.2,3.221-2.239,4.798H265.268z"/>
		<path fill="#6D6E71" d="M237.286,432v2.367h-8.934c0.098-0.895,0.387-1.742,0.871-2.543c0.483-0.803,1.438-1.864,2.865-3.188
			c1.149-1.071,1.854-1.796,2.114-2.177c0.35-0.525,0.525-1.046,0.525-1.561c0-0.568-0.153-1.004-0.458-1.309
			c-0.305-0.307-0.727-0.461-1.266-0.461c-0.531,0-0.955,0.162-1.27,0.482s-0.496,0.853-0.544,1.596l-2.54-0.254
			c0.151-1.402,0.627-2.41,1.424-3.02c0.799-0.611,1.797-0.916,2.994-0.916c1.312,0,2.343,0.354,3.092,1.061
			c0.75,0.709,1.125,1.588,1.125,2.639c0,0.6-0.107,1.17-0.322,1.71s-0.555,1.108-1.02,1.7c-0.309,0.393-0.865,0.959-1.669,1.697
			s-1.313,1.227-1.528,1.469s-0.389,0.478-0.521,0.707H237.286z"/>
	</g>
	<line fill="none" stroke="#4EBDCD" stroke-width="3" stroke-miterlimit="10" x1="92.808" y1="48.24" x2="92.808" y2="494.906"/>
	<line fill="none" stroke="#4EBDCD" stroke-width="3" stroke-miterlimit="10" x1="189.73" y1="48.24" x2="189.73" y2="494.906"/>
</g>
<g id="Layer_2">
</g>
</svg>
