<?xml version="1.0" encoding="utf-8"?>
<!-- Generator: Adobe Illustrator 15.1.0, SVG Export Plug-In . SVG Version: 6.00 Build 0)  -->
<!DOCTYPE svg PUBLIC "-//W3C//DTD SVG 1.1//EN" "http://www.w3.org/Graphics/SVG/1.1/DTD/svg11.dtd">
<svg version="1.1" xmlns="http://www.w3.org/2000/svg" xmlns:xlink="http://www.w3.org/1999/xlink" x="0px" y="0px"
	 width="235.385px" height="538.462px" viewBox="0 0 235.385 538.462" enable-background="new 0 0 235.385 538.462"
	 xml:space="preserve">
<g id="Layer_1">
	<path fill="none" stroke="#7BCCD6" stroke-width="3" stroke-miterlimit="10" d="M215.329,505.878c0,6.628-1.64,12-3.663,12H35.061
		c-2.023,0-3.663-5.372-3.663-12V35.072c0-6.627,1.64-12,3.663-12h176.605c2.023,0,3.663,5.373,3.663,12V505.878z"/>
	<line fill="none" stroke="#4EBDCD" stroke-width="3" stroke-miterlimit="10" x1="31.396" y1="184.119" x2="215.562" y2="184.119"/>
	<line fill="none" stroke="#4EBDCD" stroke-width="3" stroke-miterlimit="10" x1="31.396" y1="294.785" x2="215.562" y2="294.785"/>
	<line fill="none" stroke="#4EBDCD" stroke-width="3" stroke-miterlimit="10" x1="31.396" y1="405.452" x2="215.562" y2="405.452"/>
	<g>
		<path fill="#6D6E71" stroke="#6D6E71" stroke-width="0.8606" d="M78.328,336.959c2.219,0,3.779,1.5,3.779,3.601
			c0,2.1-1.561,3.539-3.779,3.539c-2.16,0-3.781-1.38-3.781-3.6C74.546,338.4,76.167,336.959,78.328,336.959z"/>
		<path fill="#6D6E71" stroke="#6D6E71" stroke-width="0.8606" d="M78.328,349.378c2.219,0,3.779,1.5,3.779,3.6
			c0,2.101-1.561,3.541-3.779,3.541c-2.16,0-3.781-1.381-3.781-3.601C74.546,350.819,76.167,349.378,78.328,349.378z"/>
		<path fill="#6D6E71" stroke="#6D6E71" stroke-width="0.8606" d="M78.328,361.798c2.219,0,3.779,1.5,3.779,3.6
			s-1.561,3.54-3.779,3.54c-2.16,0-3.781-1.38-3.781-3.601C74.546,363.238,76.167,361.798,78.328,361.798z"/>
	</g>
	<g>
		<path fill="#6D6E71" stroke="#6D6E71" stroke-width="0.8606" d="M168.323,336.959c2.219,0,3.779,1.5,3.779,3.601
			c0,2.1-1.561,3.539-3.779,3.539c-2.16,0-3.781-1.38-3.781-3.6C164.542,338.4,166.163,336.959,168.323,336.959z"/>
		<path fill="#6D6E71" stroke="#6D6E71" stroke-width="0.8606" d="M168.323,349.378c2.219,0,3.779,1.5,3.779,3.6
			c0,2.101-1.561,3.541-3.779,3.541c-2.16,0-3.781-1.381-3.781-3.601C164.542,350.819,166.163,349.378,168.323,349.378z"/>
		<path fill="#6D6E71" stroke="#6D6E71" stroke-width="0.8606" d="M168.323,361.798c2.219,0,3.779,1.5,3.779,3.6
			s-1.561,3.54-3.779,3.54c-2.16,0-3.781-1.38-3.781-3.601C164.542,363.238,166.163,361.798,168.323,361.798z"/>
	</g>
	<path fill="#4EBDCD" d="M213.997,73.456H31.398V35.072c0-6.627,1.628-12,3.636-12H210.36c2.008,0,3.636,5.373,3.636,12V73.456z"/>
	<g>
		<path fill="#FFFFFF" d="M70.042,58.876l6.664-10.175l-6.039-9.324h4.603l3.91,6.265l3.831-6.265h4.562l-6.065,9.471l6.664,10.029
			h-4.749L79.1,52.133l-4.336,6.744H70.042z"/>
	</g>
	<g>
		<path fill="#FFFFFF" d="M166.057,58.876V50.67l-7.143-11.293h4.616l4.589,7.715l4.496-7.715h4.536l-7.169,11.319v8.18H166.057z"/>
	</g>
	<g>
		<path fill="#6D6E71" d="M68.267,138.21l5.094-7.276l-4.881-6.85h4.562l2.5,3.884l2.634-3.884h4.389l-4.788,6.69l5.227,7.435
			h-4.589l-2.873-4.376l-2.899,4.376H68.267z"/>
		<path fill="#6D6E71" d="M86.655,136.383c0.859,0,1.53,0.306,2.014,0.919c0.576,0.726,0.865,1.929,0.865,3.61
			c0,1.677-0.291,2.882-0.871,3.616c-0.48,0.604-1.149,0.907-2.008,0.907c-0.862,0-1.558-0.332-2.086-0.995
			c-0.528-0.663-0.792-1.845-0.792-3.546c0-1.669,0.29-2.87,0.871-3.604C85.127,136.685,85.797,136.383,86.655,136.383z
			 M86.655,137.792c-0.206,0-0.389,0.065-0.55,0.197c-0.161,0.131-0.286,0.366-0.375,0.704c-0.117,0.439-0.175,1.179-0.175,2.219
			s0.052,1.754,0.157,2.144c0.104,0.389,0.236,0.648,0.396,0.777c0.159,0.129,0.341,0.193,0.547,0.193s0.389-0.065,0.55-0.196
			s0.286-0.366,0.375-0.705c0.117-0.435,0.175-1.173,0.175-2.213s-0.052-1.754-0.157-2.144s-0.237-0.649-0.396-0.78
			C87.043,137.857,86.861,137.792,86.655,137.792z"/>
	</g>
	<g>
		<path fill="#6D6E71" d="M159.139,124.084h3.977l3.378,10.029l3.299-10.029h3.871l-4.988,13.593l-0.891,2.461
			c-0.328,0.825-0.641,1.454-0.938,1.889s-0.638,0.787-1.024,1.058c-0.386,0.27-0.86,0.481-1.423,0.632
			c-0.563,0.15-1.199,0.226-1.909,0.226c-0.718,0-1.423-0.076-2.115-0.226l-0.333-2.926c0.585,0.115,1.113,0.173,1.583,0.173
			c0.869,0,1.512-0.255,1.929-0.765c0.417-0.51,0.736-1.159,0.958-1.948L159.139,124.084z"/>
		<path fill="#6D6E71" d="M173.143,136.383c0.859,0,1.53,0.306,2.014,0.919c0.576,0.726,0.865,1.929,0.865,3.61
			c0,1.677-0.291,2.882-0.871,3.616c-0.48,0.604-1.149,0.907-2.008,0.907c-0.862,0-1.558-0.332-2.086-0.995
			c-0.528-0.663-0.792-1.845-0.792-3.546c0-1.669,0.29-2.87,0.871-3.604C171.615,136.685,172.284,136.383,173.143,136.383z
			 M173.143,137.792c-0.206,0-0.389,0.065-0.55,0.197c-0.161,0.131-0.286,0.366-0.375,0.704c-0.117,0.439-0.175,1.179-0.175,2.219
			s0.052,1.754,0.157,2.144c0.104,0.389,0.236,0.648,0.396,0.777c0.159,0.129,0.341,0.193,0.547,0.193s0.389-0.065,0.55-0.196
			s0.286-0.366,0.375-0.705c0.117-0.435,0.175-1.173,0.175-2.213s-0.052-1.754-0.157-2.144s-0.237-0.649-0.396-0.78
			C173.531,137.857,173.348,137.792,173.143,137.792z"/>
	</g>
	<g>
		<path fill="#6D6E71" d="M68.267,245.445l5.094-7.276l-4.881-6.85h4.562l2.5,3.884l2.634-3.884h4.389l-4.788,6.69l5.227,7.435
			h-4.589l-2.873-4.376l-2.899,4.376H68.267z"/>
		<path fill="#6D6E71" d="M88.131,252.519h-1.699v-6.403c-0.621,0.581-1.353,1.01-2.195,1.288v-1.542
			c0.443-0.145,0.925-0.42,1.445-0.825c0.52-0.405,0.876-0.878,1.07-1.418h1.379V252.519z"/>
	</g>
	<g>
		<path fill="#6D6E71" d="M159.139,231.32h3.977l3.378,10.029l3.299-10.029h3.871l-4.988,13.593l-0.891,2.461
			c-0.328,0.825-0.641,1.454-0.938,1.889s-0.638,0.787-1.024,1.058c-0.386,0.27-0.86,0.481-1.423,0.632
			c-0.563,0.15-1.199,0.226-1.909,0.226c-0.718,0-1.423-0.076-2.115-0.226l-0.333-2.926c0.585,0.115,1.113,0.173,1.583,0.173
			c0.869,0,1.512-0.255,1.929-0.765c0.417-0.51,0.736-1.159,0.958-1.948L159.139,231.32z"/>
		<path fill="#6D6E71" d="M174.618,252.519h-1.699v-6.403c-0.621,0.581-1.353,1.01-2.195,1.288v-1.542
			c0.443-0.145,0.925-0.42,1.445-0.825c0.52-0.405,0.876-0.878,1.07-1.418h1.379V252.519z"/>
	</g>
	<g>
		<path fill="#6D6E71" d="M67.239,467.879l5.094-7.275l-4.881-6.85h4.562l2.5,3.884l2.634-3.884h4.389l-4.788,6.69l5.227,7.435
			h-4.589l-2.873-4.376l-2.899,4.376H67.239z"/>
		<path fill="#6D6E71" d="M83.148,474.952v-8.864h1.742l3.628,5.92v-5.92h1.663v8.864h-1.796l-3.573-5.78v5.78H83.148z"/>
	</g>
	<g>
		<path fill="#6D6E71" d="M158.111,453.754h3.977l3.378,10.028l3.299-10.028h3.871l-4.988,13.593l-0.891,2.461
			c-0.328,0.825-0.641,1.454-0.938,1.889s-0.638,0.787-1.024,1.058s-0.86,0.481-1.423,0.632s-1.199,0.227-1.909,0.227
			c-0.718,0-1.423-0.076-2.115-0.227l-0.333-2.926c0.585,0.114,1.113,0.173,1.583,0.173c0.869,0,1.512-0.255,1.929-0.766
			c0.417-0.51,0.736-1.159,0.958-1.948L158.111,453.754z"/>
		<path fill="#6D6E71" d="M169.636,474.952v-8.864h1.742l3.628,5.92v-5.92h1.663v8.864h-1.796l-3.573-5.78v5.78H169.636z"/>
	</g>
	<line fill="none" stroke="#4EBDCD" stroke-width="3" stroke-miterlimit="10" x1="120.895" y1="68.927" x2="120.895" y2="515.593"/>
</g>
<g id="Layer_2">
</g>
</svg>
