<?xml version="1.0" encoding="utf-8"?>
<!-- Generator: Adobe Illustrator 15.1.0, SVG Export Plug-In . SVG Version: 6.00 Build 0)  -->
<!DOCTYPE svg PUBLIC "-//W3C//DTD SVG 1.1//EN" "http://www.w3.org/Graphics/SVG/1.1/DTD/svg11.dtd">
<svg version="1.1" xmlns="http://www.w3.org/2000/svg" xmlns:xlink="http://www.w3.org/1999/xlink" x="0px" y="0px"
	 width="187.879px" height="497.726px" viewBox="0 0 187.879 497.726" enable-background="new 0 0 187.879 497.726"
	 xml:space="preserve">
<g id="Layer_1">
	<path fill="none" stroke="#7BCCD6" stroke-width="3" stroke-miterlimit="10" d="M186.569,484.255c0,6.628-5.645,12-7.668,12H10.304
		c-2.022,0-7.667-5.372-7.667-12V13.45c0-6.627,6.646-12,8.668-12H177.9c2.023,0,8.669,5.373,8.669,12V484.255z"/>
	<line fill="none" stroke="#4EBDCD" stroke-width="3" stroke-miterlimit="10" x1="2.636" y1="162.496" x2="186.802" y2="162.496"/>
	<line fill="none" stroke="#4EBDCD" stroke-width="3" stroke-miterlimit="10" x1="2.636" y1="273.163" x2="186.802" y2="273.163"/>
	<line fill="none" stroke="#4EBDCD" stroke-width="3" stroke-miterlimit="10" x1="2.636" y1="383.829" x2="186.802" y2="383.829"/>
	<g>
		<path fill="#6D6E71" stroke="#6D6E71" stroke-width="0.8606" d="M49.567,315.337c2.219,0,3.779,1.5,3.779,3.601
			c0,2.1-1.561,3.539-3.779,3.539c-2.16,0-3.781-1.38-3.781-3.6C45.786,316.777,47.407,315.337,49.567,315.337z"/>
		<path fill="#6D6E71" stroke="#6D6E71" stroke-width="0.8606" d="M49.567,327.756c2.219,0,3.779,1.5,3.779,3.6
			c0,2.101-1.561,3.541-3.779,3.541c-2.16,0-3.781-1.381-3.781-3.601C45.786,329.196,47.407,327.756,49.567,327.756z"/>
		<path fill="#6D6E71" stroke="#6D6E71" stroke-width="0.8606" d="M49.567,340.176c2.219,0,3.779,1.5,3.779,3.6
			s-1.561,3.54-3.779,3.54c-2.16,0-3.781-1.38-3.781-3.601C45.786,341.615,47.407,340.176,49.567,340.176z"/>
	</g>
	<g>
		<path fill="#6D6E71" stroke="#6D6E71" stroke-width="0.8606" d="M139.563,315.337c2.219,0,3.779,1.5,3.779,3.601
			c0,2.1-1.561,3.539-3.779,3.539c-2.16,0-3.781-1.38-3.781-3.6C135.782,316.777,137.403,315.337,139.563,315.337z"/>
		<path fill="#6D6E71" stroke="#6D6E71" stroke-width="0.8606" d="M139.563,327.756c2.219,0,3.779,1.5,3.779,3.6
			c0,2.101-1.561,3.541-3.779,3.541c-2.16,0-3.781-1.381-3.781-3.601C135.782,329.196,137.403,327.756,139.563,327.756z"/>
		<path fill="#6D6E71" stroke="#6D6E71" stroke-width="0.8606" d="M139.563,340.176c2.219,0,3.779,1.5,3.779,3.6
			s-1.561,3.54-3.779,3.54c-2.16,0-3.781-1.38-3.781-3.601C135.782,341.615,137.403,340.176,139.563,340.176z"/>
	</g>
	<path fill="#4EBDCD" d="M185.237,51.833H2.638V13.45c0-6.627,6.633-12,8.641-12h165.316c2.008,0,8.642,5.373,8.642,12V51.833z"/>
	<g>
		<path fill="#FFFFFF" d="M41.284,37.254l6.664-10.175l-6.039-9.324h4.603l3.91,6.265l3.831-6.265h4.562l-6.065,9.471l6.664,10.029
			h-4.749l-4.323-6.744l-4.336,6.744H41.284z"/>
	</g>
	<g>
		<path fill="#FFFFFF" d="M137.3,37.254v-8.207l-7.143-11.293h4.616l4.589,7.715l4.496-7.715h4.536l-7.169,11.319v8.18H137.3z"/>
	</g>
	<g>
		<path fill="#6D6E71" d="M39.51,116.587l5.094-7.276l-4.881-6.85h4.562l2.5,3.884l2.634-3.884h4.389l-4.788,6.69l5.227,7.435
			h-4.589l-2.873-4.376l-2.899,4.376H39.51z"/>
		<path fill="#6D6E71" d="M57.898,114.76c0.859,0,1.53,0.306,2.014,0.919c0.576,0.726,0.865,1.929,0.865,3.61
			c0,1.677-0.291,2.882-0.871,3.616c-0.48,0.604-1.149,0.907-2.008,0.907c-0.862,0-1.558-0.332-2.086-0.995
			c-0.528-0.663-0.792-1.845-0.792-3.546c0-1.669,0.29-2.87,0.871-3.604C56.37,115.062,57.04,114.76,57.898,114.76z M57.898,116.169
			c-0.206,0-0.389,0.065-0.55,0.197c-0.161,0.131-0.286,0.366-0.375,0.704c-0.117,0.439-0.175,1.179-0.175,2.219
			s0.052,1.754,0.157,2.144c0.104,0.389,0.236,0.648,0.396,0.777c0.159,0.129,0.341,0.193,0.547,0.193s0.389-0.065,0.55-0.196
			s0.286-0.366,0.375-0.705c0.117-0.435,0.175-1.173,0.175-2.213s-0.052-1.754-0.157-2.144s-0.237-0.649-0.396-0.78
			C58.286,116.234,58.104,116.169,57.898,116.169z"/>
	</g>
	<g>
		<path fill="#6D6E71" d="M130.382,102.462h3.977l3.378,10.029l3.299-10.029h3.871l-4.988,13.593l-0.891,2.461
			c-0.328,0.825-0.641,1.454-0.938,1.889s-0.638,0.787-1.024,1.058c-0.386,0.27-0.86,0.481-1.423,0.632
			c-0.563,0.15-1.199,0.226-1.909,0.226c-0.718,0-1.423-0.076-2.115-0.226l-0.333-2.926c0.585,0.115,1.113,0.173,1.583,0.173
			c0.869,0,1.512-0.255,1.929-0.765c0.417-0.51,0.736-1.159,0.958-1.948L130.382,102.462z"/>
		<path fill="#6D6E71" d="M144.385,114.76c0.859,0,1.53,0.306,2.014,0.919c0.576,0.726,0.865,1.929,0.865,3.61
			c0,1.677-0.291,2.882-0.871,3.616c-0.48,0.604-1.149,0.907-2.008,0.907c-0.862,0-1.558-0.332-2.086-0.995
			c-0.528-0.663-0.792-1.845-0.792-3.546c0-1.669,0.29-2.87,0.871-3.604C142.857,115.062,143.527,114.76,144.385,114.76z
			 M144.385,116.169c-0.206,0-0.389,0.065-0.55,0.197c-0.161,0.131-0.286,0.366-0.375,0.704c-0.117,0.439-0.175,1.179-0.175,2.219
			s0.052,1.754,0.157,2.144c0.104,0.389,0.236,0.648,0.396,0.777c0.159,0.129,0.341,0.193,0.547,0.193s0.389-0.065,0.55-0.196
			s0.286-0.366,0.375-0.705c0.117-0.435,0.175-1.173,0.175-2.213s-0.052-1.754-0.157-2.144s-0.237-0.649-0.396-0.78
			C144.773,116.234,144.591,116.169,144.385,116.169z"/>
	</g>
	<g>
		<path fill="#6D6E71" d="M39.51,223.823l5.094-7.276l-4.881-6.85h4.562l2.5,3.884l2.634-3.884h4.389l-4.788,6.69l5.227,7.435
			h-4.589l-2.873-4.376l-2.899,4.376H39.51z"/>
		<path fill="#6D6E71" d="M59.374,230.896h-1.699v-6.403c-0.621,0.581-1.353,1.01-2.195,1.288v-1.542
			c0.443-0.145,0.925-0.42,1.445-0.825c0.52-0.405,0.876-0.878,1.07-1.418h1.378V230.896z"/>
	</g>
	<g>
		<path fill="#6D6E71" d="M130.382,209.697h3.977l3.378,10.029l3.299-10.029h3.871l-4.988,13.593l-0.891,2.461
			c-0.328,0.825-0.641,1.454-0.938,1.889s-0.638,0.787-1.024,1.058c-0.386,0.27-0.86,0.481-1.423,0.632
			c-0.563,0.15-1.199,0.226-1.909,0.226c-0.718,0-1.423-0.076-2.115-0.226l-0.333-2.926c0.585,0.115,1.113,0.173,1.583,0.173
			c0.869,0,1.512-0.255,1.929-0.765c0.417-0.51,0.736-1.159,0.958-1.948L130.382,209.697z"/>
		<path fill="#6D6E71" d="M145.861,230.896h-1.699v-6.403c-0.621,0.581-1.353,1.01-2.195,1.288v-1.542
			c0.443-0.145,0.925-0.42,1.445-0.825c0.52-0.405,0.876-0.878,1.07-1.418h1.378V230.896z"/>
	</g>
	<g>
		<path fill="#6D6E71" d="M28.717,446.257l5.094-7.276l-4.881-6.85h4.562l2.5,3.884l2.634-3.884h4.389l-4.788,6.69l5.227,7.436
			h-4.589l-2.873-4.377l-2.899,4.377H28.717z"/>
		<path fill="#6D6E71" d="M47.686,455.936h-1.167c-0.617-0.931-1.086-1.898-1.409-2.902c-0.323-1.003-0.484-1.976-0.484-2.914
			c0-1.165,0.2-2.268,0.599-3.308c0.347-0.902,0.786-1.735,1.318-2.497h1.161c-0.552,1.222-0.932,2.261-1.14,3.116
			c-0.208,0.857-0.312,1.766-0.312,2.725c0,0.661,0.062,1.338,0.185,2.031s0.291,1.353,0.505,1.978
			C47.083,454.576,47.331,455.166,47.686,455.936z"/>
		<path fill="#6D6E71" d="M49.022,453.33v-8.863h1.742l3.628,5.919v-5.919h1.663v8.863h-1.796l-3.573-5.779v5.779H49.022z"/>
		<path fill="#6D6E71" d="M57.741,450.966v-1.699h3.338v1.699H57.741z"/>
		<path fill="#6D6E71" d="M66.043,453.33h-1.699v-6.402c-0.621,0.58-1.353,1.01-2.195,1.287v-1.541
			c0.443-0.146,0.925-0.421,1.445-0.826c0.52-0.404,0.876-0.877,1.07-1.418h1.378V453.33z"/>
		<path fill="#6D6E71" d="M68.474,455.936c0.335-0.718,0.571-1.268,0.708-1.65c0.137-0.384,0.264-0.825,0.381-1.324
			c0.117-0.5,0.204-0.975,0.26-1.425c0.056-0.449,0.084-0.909,0.084-1.381c0-0.959-0.103-1.867-0.308-2.725
			c-0.206-0.855-0.584-1.895-1.137-3.116h1.155c0.608,0.866,1.081,1.786,1.418,2.757c0.336,0.972,0.505,1.957,0.505,2.957
			c0,0.842-0.133,1.745-0.399,2.709c-0.302,1.08-0.8,2.146-1.493,3.198H68.474z"/>
	</g>
	<g>
		<path fill="#6D6E71" d="M118.908,432.131h3.977l3.378,10.028l3.299-10.028h3.871l-4.988,13.593l-0.891,2.461
			c-0.328,0.825-0.641,1.455-0.938,1.889c-0.297,0.436-0.638,0.787-1.024,1.059c-0.386,0.27-0.86,0.48-1.423,0.631
			s-1.199,0.227-1.909,0.227c-0.718,0-1.423-0.076-2.115-0.227l-0.333-2.926c0.585,0.115,1.113,0.173,1.583,0.173
			c0.869,0,1.512-0.255,1.929-0.765s0.736-1.16,0.958-1.949L118.908,432.131z"/>
		<path fill="#6D6E71" d="M134.854,455.936h-1.167c-0.617-0.931-1.086-1.898-1.409-2.902c-0.323-1.003-0.484-1.976-0.484-2.914
			c0-1.165,0.2-2.268,0.599-3.308c0.347-0.902,0.786-1.735,1.318-2.497h1.161c-0.552,1.222-0.932,2.261-1.14,3.116
			c-0.208,0.857-0.312,1.766-0.312,2.725c0,0.661,0.062,1.338,0.185,2.031s0.291,1.353,0.505,1.978
			C134.251,454.576,134.499,455.166,134.854,455.936z"/>
		<path fill="#6D6E71" d="M136.19,453.33v-8.863h1.742l3.628,5.919v-5.919h1.663v8.863h-1.796l-3.573-5.779v5.779H136.19z"/>
		<path fill="#6D6E71" d="M144.909,450.966v-1.699h3.338v1.699H144.909z"/>
		<path fill="#6D6E71" d="M153.211,453.33h-1.699v-6.402c-0.621,0.58-1.353,1.01-2.195,1.287v-1.541
			c0.443-0.146,0.925-0.421,1.445-0.826c0.52-0.404,0.876-0.877,1.07-1.418h1.378V453.33z"/>
		<path fill="#6D6E71" d="M155.642,455.936c0.335-0.718,0.571-1.268,0.708-1.65c0.137-0.384,0.264-0.825,0.381-1.324
			c0.117-0.5,0.204-0.975,0.26-1.425c0.056-0.449,0.084-0.909,0.084-1.381c0-0.959-0.103-1.867-0.308-2.725
			c-0.206-0.855-0.584-1.895-1.137-3.116h1.155c0.608,0.866,1.081,1.786,1.418,2.757c0.336,0.972,0.505,1.957,0.505,2.957
			c0,0.842-0.133,1.745-0.399,2.709c-0.302,1.08-0.8,2.146-1.493,3.198H155.642z"/>
	</g>
	<line fill="none" stroke="#4EBDCD" stroke-width="3" stroke-miterlimit="10" x1="92.135" y1="47.304" x2="92.135" y2="493.97"/>
</g>
<g id="Layer_2">
</g>
</svg>
