<?xml version="1.0" encoding="UTF-8" standalone="no"?>
<!-- Created with Inkscape (http://www.inkscape.org/) -->

<svg
   xmlns:dc="http://purl.org/dc/elements/1.1/"
   xmlns:cc="http://creativecommons.org/ns#"
   xmlns:rdf="http://www.w3.org/1999/02/22-rdf-syntax-ns#"
   xmlns:svg="http://www.w3.org/2000/svg"
   xmlns="http://www.w3.org/2000/svg"
   xmlns:sodipodi="http://sodipodi.sourceforge.net/DTD/sodipodi-0.dtd"
   xmlns:inkscape="http://www.inkscape.org/namespaces/inkscape"
   width="730.65643"
   height="570.91876"
   id="svg2"
   version="1.1"
   inkscape:version="0.48.4 r9939"
   sodipodi:docname="New document 1">
  <defs
     id="defs4" />
  <sodipodi:namedview
     id="base"
     pagecolor="#ffffff"
     bordercolor="#666666"
     borderopacity="1.0"
     inkscape:pageopacity="0.0"
     inkscape:pageshadow="2"
     inkscape:zoom="0.60346639"
     inkscape:cx="239.74977"
     inkscape:cy="345.40791"
     inkscape:document-units="px"
     inkscape:current-layer="layer1"
     showgrid="true"
     showguides="false"
     inkscape:guide-bbox="true"
     fit-margin-top="0"
     fit-margin-left="0"
     fit-margin-right="0"
     fit-margin-bottom="0"
     inkscape:window-width="1280"
     inkscape:window-height="1000"
     inkscape:window-x="0"
     inkscape:window-y="24"
     inkscape:window-maximized="1">
    <inkscape:grid
       type="xygrid"
       id="grid3034"
       empspacing="5"
       visible="true"
       enabled="true"
       snapvisiblegridlinesonly="true"
       originx="-67.328261px"
       originy="-153.55076px" />
  </sodipodi:namedview>
  <metadata
     id="metadata7">
    <rdf:RDF>
      <cc:Work
         rdf:about="">
        <dc:format>image/svg+xml</dc:format>
        <dc:type
           rdf:resource="http://purl.org/dc/dcmitype/StillImage" />
        <dc:title></dc:title>
      </cc:Work>
    </rdf:RDF>
  </metadata>
  <g
     inkscape:label="Layer 1"
     inkscape:groupmode="layer"
     id="layer1"
     transform="translate(-67.328261,-327.89264)">
    <path
       style="fill:none;stroke:#000000;stroke-width:3;stroke-linecap:butt;stroke-linejoin:miter;stroke-miterlimit:4;stroke-opacity:1;stroke-dasharray:none"
       d="m 230,464.09448 210,-220 90,300 z"
       id="path3074"
       inkscape:connector-curvature="0"
       transform="translate(0,308.2677)" />
    <path
       style="fill:none;stroke:#000000;stroke-width:3;stroke-linecap:butt;stroke-linejoin:miter;stroke-miterlimit:4;stroke-opacity:1;stroke-dasharray:none"
       d="M 440,244.09448 750,64.094482"
       id="path3076"
       inkscape:connector-curvature="0"
       transform="translate(0,308.2677)" />
    <path
       style="fill:none;stroke:#000000;stroke-width:3;stroke-linecap:butt;stroke-linejoin:miter;stroke-miterlimit:4;stroke-opacity:1;stroke-dasharray:none"
       d="M 530,544.09448 750,64.094482"
       id="path3078"
       inkscape:connector-curvature="0"
       transform="translate(0,308.2677)" />
    <path
       transform="translate(341.42137,643.73987)"
       sodipodi:type="arc"
       style="fill:#ff0000;fill-rule:evenodd;stroke:#000000;stroke-width:1px;stroke-linecap:butt;stroke-linejoin:miter;stroke-opacity:1"
       id="path3040-9"
       sodipodi:cx="185"
       sodipodi:cy="209.09448"
       sodipodi:rx="45"
       sodipodi:ry="45"
       d="m 230,209.09448 c 0,24.85282 -20.14719,45 -45,45 -24.85281,0 -45,-20.14718 -45,-45 0,-24.85281 20.14719,-45 45,-45 24.85281,0 45,20.14719 45,45 z" />
    <rect
       style="fill:none;stroke:#000080;stroke-width:2.81894541;stroke-linecap:butt;stroke-linejoin:miter;stroke-miterlimit:4;stroke-opacity:1;stroke-dasharray:none"
       id="rect3082"
       width="390.98816"
       height="388.86633"
       x="182.13283"
       y="508.53561" />
    <rect
       style="fill:none;stroke:#00ff00;stroke-width:2.96091485;stroke-miterlimit:4;stroke-dasharray:none"
       id="rect3852"
       width="401.83685"
       height="566.52386"
       x="393.49567"
       y="330.54483" />
    <path
       style="fill:none;stroke:#000000;stroke-width:3;stroke-linecap:butt;stroke-linejoin:miter;stroke-miterlimit:4;stroke-opacity:1;stroke-dasharray:none"
       d="m 230,464.09448 -120,-330"
       id="path3872"
       inkscape:connector-curvature="0"
       transform="translate(0,308.2677)" />
    <path
       sodipodi:type="arc"
       style="fill:#ff0000;fill-rule:evenodd;stroke:#000000;stroke-width:1px;stroke-linecap:butt;stroke-linejoin:miter;stroke-opacity:1"
       id="path3040"
       sodipodi:cx="185"
       sodipodi:cy="209.09448"
       sodipodi:rx="45"
       sodipodi:ry="45"
       d="m 230,209.09448 c 0,24.85282 -20.14719,45 -45,45 -24.85281,0 -45,-20.14718 -45,-45 0,-24.85281 20.14719,-45 45,-45 24.85281,0 45,20.14719 45,45 z"
       transform="translate(45.456865,558.78552)" />
    <path
       style="fill:none;stroke:#000000;stroke-width:3;stroke-linecap:butt;stroke-linejoin:miter;stroke-miterlimit:4;stroke-opacity:1;stroke-dasharray:none"
       d="m 440,244.09448 -330,-110"
       id="path3874"
       inkscape:connector-curvature="0"
       transform="translate(0,308.2677)" />
    <path
       transform="translate(252.52793,346.04945)"
       sodipodi:type="arc"
       style="fill:#ff0000;fill-rule:evenodd;stroke:#000000;stroke-width:1px;stroke-linecap:butt;stroke-linejoin:miter;stroke-opacity:1"
       id="path3040-7"
       sodipodi:cx="185"
       sodipodi:cy="209.09448"
       sodipodi:rx="45"
       sodipodi:ry="45"
       d="m 230,209.09448 c 0,24.85282 -20.14719,45 -45,45 -24.85281,0 -45,-20.14718 -45,-45 0,-24.85281 20.14719,-45 45,-45 24.85281,0 45,20.14719 45,45 z" />
    <rect
       style="fill:none;stroke:#ff00ff;stroke-width:3.00021529;stroke-miterlimit:4;stroke-dasharray:none"
       id="rect3876"
       width="414.68674"
       height="415.31284"
       x="68.828369"
       y="398.22101" />
    <path
       style="fill:none;stroke:#000000;stroke-width:3;stroke-linecap:butt;stroke-linejoin:miter;stroke-miterlimit:4;stroke-opacity:1;stroke-dasharray:none"
       d="M 110,134.09448 750,64.094482"
       id="path3878"
       inkscape:connector-curvature="0"
       transform="translate(0,308.2677)" />
    <path
       transform="translate(565.06607,168.45545)"
       sodipodi:type="arc"
       style="fill:#ff0000;fill-rule:evenodd;stroke:#000000;stroke-width:1px;stroke-linecap:butt;stroke-linejoin:miter;stroke-opacity:1"
       id="path3040-3"
       sodipodi:cx="185"
       sodipodi:cy="209.09448"
       sodipodi:rx="45"
       sodipodi:ry="45"
       d="m 230,209.09448 c 0,24.85282 -20.14719,45 -45,45 -24.85281,0 -45,-20.14718 -45,-45 0,-24.85281 20.14719,-45 45,-45 24.85281,0 45,20.14719 45,45 z" />
    <path
       transform="translate(-70.653961,235.25398)"
       sodipodi:type="arc"
       style="fill:#ff0000;fill-rule:evenodd;stroke:#000000;stroke-width:1px;stroke-linecap:butt;stroke-linejoin:miter;stroke-opacity:1"
       id="path3040-7-6"
       sodipodi:cx="185"
       sodipodi:cy="209.09448"
       sodipodi:rx="45"
       sodipodi:ry="45"
       d="m 230,209.09448 c 0,24.85282 -20.14719,45 -45,45 -24.85281,0 -45,-20.14718 -45,-45 0,-24.85281 20.14719,-45 45,-45 24.85281,0 45,20.14719 45,45 z" />
    <rect
       style="fill:none;stroke:#483737;stroke-width:2.93634415;stroke-miterlimit:4;stroke-dasharray:none"
       id="rect3880"
       width="726.54834"
       height="269.51797"
       x="69.968163"
       y="329.36081" />
  </g>
</svg>
