<?xml version="1.0" encoding="utf-8"?>
<!-- Generator: Adobe Illustrator 15.1.0, SVG Export Plug-In . SVG Version: 6.00 Build 0)  -->
<!DOCTYPE svg PUBLIC "-//W3C//DTD SVG 1.1//EN" "http://www.w3.org/Graphics/SVG/1.1/DTD/svg11.dtd">
<svg version="1.1" xmlns="http://www.w3.org/2000/svg" xmlns:xlink="http://www.w3.org/1999/xlink" x="0px" y="0px" width="333px"
	 height="538.462px" viewBox="0 0 333 538.462" enable-background="new 0 0 333 538.462" xml:space="preserve">
<g id="Layer_1">
	<path fill="none" stroke="#7BCCD6" stroke-width="3.6969" stroke-miterlimit="10" d="M306.488,505.878c0,6.628-2.491,12-5.564,12
		H32.734c-3.071,0-5.562-5.372-5.562-12V35.072c0-6.627,2.491-12,5.562-12h268.189c3.073,0,5.564,5.373,5.564,12V505.878z"/>
	
		<line fill="none" stroke="#4EBDCD" stroke-width="3.7" stroke-miterlimit="10" x1="27.171" y1="184.119" x2="307.312" y2="184.119"/>
	
		<line fill="none" stroke="#4EBDCD" stroke-width="3.7" stroke-miterlimit="10" x1="27.171" y1="294.785" x2="307.312" y2="294.785"/>
	
		<line fill="none" stroke="#4EBDCD" stroke-width="3.7" stroke-miterlimit="10" x1="27.171" y1="405.452" x2="307.312" y2="405.452"/>
	<g>
		<path fill="#6D6E71" stroke="#6D6E71" stroke-width="0.8606" d="M164.098,336.959c2.219,0,3.779,1.5,3.779,3.601
			c0,2.1-1.561,3.539-3.779,3.539c-2.16,0-3.781-1.38-3.781-3.6C160.316,338.4,161.938,336.959,164.098,336.959z"/>
		<path fill="#6D6E71" stroke="#6D6E71" stroke-width="0.8606" d="M164.098,349.378c2.219,0,3.779,1.5,3.779,3.6
			c0,2.101-1.561,3.541-3.779,3.541c-2.16,0-3.781-1.381-3.781-3.601C160.316,350.819,161.938,349.378,164.098,349.378z"/>
		<path fill="#6D6E71" stroke="#6D6E71" stroke-width="0.8606" d="M164.098,361.798c2.219,0,3.779,1.5,3.779,3.6
			s-1.561,3.54-3.779,3.54c-2.16,0-3.781-1.38-3.781-3.601C160.316,363.238,161.938,361.798,164.098,361.798z"/>
	</g>
	<path fill="#4EBDCD" d="M305.156,73.456H27.173V35.072c0-6.627,2.479-12,5.535-12H299.62c3.057,0,5.536,5.373,5.536,12V73.456z"/>
	<g>
		<path fill="#FFFFFF" d="M69.672,58.876l-6.97-19.5h4.27l4.935,14.432l4.775-14.432h4.176l-6.983,19.5H69.672z"/>
		<path fill="#FFFFFF" d="M88.287,34.886c1.182,0,2.105,0.422,2.771,1.266c0.793,0.999,1.19,2.655,1.19,4.969
			c0,2.309-0.399,3.968-1.199,4.978c-0.66,0.833-1.582,1.249-2.763,1.249c-1.188,0-2.145-0.456-2.872-1.369
			c-0.727-0.913-1.09-2.54-1.09-4.882c0-2.297,0.399-3.951,1.199-4.961C86.184,35.303,87.105,34.886,88.287,34.886z M88.287,36.826
			c-0.283,0-0.536,0.09-0.758,0.271c-0.222,0.18-0.394,0.503-0.516,0.97c-0.161,0.604-0.241,1.623-0.241,3.055
			s0.072,2.415,0.216,2.951c0.145,0.536,0.326,0.892,0.545,1.07s0.47,0.266,0.753,0.266c0.283,0,0.535-0.09,0.757-0.271
			c0.222-0.18,0.394-0.503,0.516-0.97c0.161-0.599,0.241-1.615,0.241-3.046s-0.072-2.415-0.216-2.951
			c-0.145-0.536-0.326-0.894-0.545-1.074C88.821,36.916,88.57,36.826,88.287,36.826z"/>
	</g>
	<g>
		<path fill="#FFFFFF" d="M162.342,58.876l-6.97-19.5h4.27l4.935,14.432l4.775-14.432h4.176l-6.983,19.5H162.342z"/>
		<path fill="#FFFFFF" d="M182.988,47.139h-2.339v-8.815c-0.854,0.799-1.862,1.39-3.021,1.773v-2.123
			c0.61-0.2,1.273-0.579,1.989-1.136s1.207-1.208,1.473-1.952h1.898V47.139z"/>
	</g>
	<g>
		<path fill="#FFFFFF" d="M257.727,58.876l-6.97-19.5h4.27l4.935,14.432l4.775-14.432h4.176l-6.983,19.5H257.727z"/>
		<path fill="#FFFFFF" d="M280.287,44.967v2.172h-8.199c0.089-0.821,0.355-1.6,0.799-2.335c0.444-0.735,1.321-1.71,2.63-2.926
			c1.054-0.982,1.701-1.648,1.939-1.998c0.322-0.483,0.483-0.96,0.483-1.432c0-0.521-0.141-0.923-0.42-1.203
			c-0.28-0.28-0.667-0.42-1.161-0.42c-0.489,0-0.877,0.147-1.166,0.441c-0.289,0.294-0.455,0.782-0.5,1.465l-2.331-0.233
			c0.139-1.287,0.574-2.211,1.307-2.772c0.733-0.56,1.648-0.841,2.747-0.841c1.204,0,2.15,0.325,2.838,0.974
			s1.032,1.457,1.032,2.422c0,0.549-0.099,1.072-0.295,1.569c-0.197,0.497-0.509,1.017-0.937,1.561
			c-0.283,0.36-0.793,0.879-1.532,1.556c-0.738,0.677-1.206,1.127-1.402,1.349c-0.197,0.222-0.357,0.438-0.479,0.649H280.287z"/>
	</g>
	<g>
		<path fill="#6D6E71" d="M69.709,138.21l-5.693-14.125h3.924l2.66,7.209l0.771,2.407c0.204-0.612,0.333-1.015,0.386-1.21
			c0.124-0.399,0.257-0.798,0.399-1.197l2.687-7.209h3.844l-5.613,14.125H69.709z"/>
		<path fill="#6D6E71" d="M80.429,136.383c0.859,0,1.53,0.306,2.014,0.919c0.576,0.726,0.865,1.929,0.865,3.61
			c0,1.677-0.291,2.882-0.871,3.616c-0.48,0.604-1.149,0.907-2.008,0.907c-0.862,0-1.558-0.332-2.086-0.995
			c-0.528-0.663-0.792-1.845-0.792-3.546c0-1.669,0.29-2.87,0.871-3.604C78.901,136.685,79.571,136.383,80.429,136.383z
			 M80.429,137.792c-0.206,0-0.389,0.065-0.55,0.197c-0.161,0.131-0.286,0.366-0.375,0.704c-0.117,0.439-0.175,1.179-0.175,2.219
			s0.052,1.754,0.157,2.144c0.104,0.389,0.236,0.648,0.396,0.777c0.159,0.129,0.341,0.193,0.547,0.193s0.389-0.065,0.55-0.196
			s0.286-0.366,0.375-0.705c0.117-0.435,0.175-1.173,0.175-2.213s-0.052-1.754-0.157-2.144s-0.237-0.649-0.396-0.78
			C80.817,137.857,80.635,137.792,80.429,137.792z"/>
		<path fill="#6D6E71" d="M84.443,118.236c0.859,0,1.53,0.306,2.014,0.919c0.576,0.726,0.865,1.929,0.865,3.61
			c0,1.677-0.291,2.882-0.871,3.616c-0.48,0.604-1.149,0.907-2.008,0.907c-0.862,0-1.558-0.332-2.086-0.995
			c-0.528-0.663-0.792-1.845-0.792-3.546c0-1.669,0.29-2.87,0.871-3.604C82.916,118.539,83.585,118.236,84.443,118.236z
			 M84.443,119.645c-0.206,0-0.389,0.065-0.55,0.197c-0.161,0.131-0.286,0.366-0.375,0.704c-0.117,0.439-0.175,1.179-0.175,2.219
			s0.052,1.754,0.157,2.144c0.104,0.389,0.236,0.648,0.396,0.777c0.159,0.129,0.341,0.193,0.547,0.193s0.389-0.065,0.55-0.196
			s0.286-0.366,0.375-0.705c0.117-0.435,0.175-1.173,0.175-2.213s-0.052-1.754-0.157-2.144s-0.237-0.649-0.396-0.78
			C84.832,119.71,84.649,119.645,84.443,119.645z"/>
	</g>
	<g>
		<path fill="#6D6E71" d="M163.38,138.21l-5.693-14.125h3.924l2.66,7.209l0.771,2.407c0.204-0.612,0.333-1.015,0.386-1.21
			c0.124-0.399,0.257-0.798,0.399-1.197l2.687-7.209h3.844l-5.613,14.125H163.38z"/>
		<path fill="#6D6E71" d="M174.1,136.383c0.859,0,1.53,0.306,2.014,0.919c0.576,0.726,0.865,1.929,0.865,3.61
			c0,1.677-0.291,2.882-0.871,3.616c-0.48,0.604-1.149,0.907-2.008,0.907c-0.862,0-1.558-0.332-2.086-0.995
			c-0.528-0.663-0.792-1.845-0.792-3.546c0-1.669,0.29-2.87,0.871-3.604C172.572,136.685,173.241,136.383,174.1,136.383z
			 M174.1,137.792c-0.206,0-0.389,0.065-0.55,0.197c-0.161,0.131-0.286,0.366-0.375,0.704c-0.117,0.439-0.175,1.179-0.175,2.219
			s0.052,1.754,0.157,2.144c0.104,0.389,0.236,0.648,0.396,0.777c0.159,0.129,0.341,0.193,0.547,0.193s0.389-0.065,0.55-0.196
			s0.286-0.366,0.375-0.705c0.117-0.435,0.175-1.173,0.175-2.213s-0.052-1.754-0.157-2.144s-0.237-0.649-0.396-0.78
			C174.488,137.857,174.305,137.792,174.1,137.792z"/>
		<path fill="#6D6E71" d="M179.589,127.137h-1.699v-6.403c-0.621,0.581-1.353,1.01-2.195,1.288v-1.542
			c0.443-0.145,0.925-0.42,1.445-0.825c0.52-0.405,0.876-0.878,1.07-1.418h1.378V127.137z"/>
	</g>
	<g>
		<path fill="#6D6E71" d="M257.953,138.21l-5.693-14.125h3.924l2.66,7.209l0.771,2.407c0.204-0.612,0.333-1.015,0.386-1.21
			c0.124-0.399,0.257-0.798,0.399-1.197l2.687-7.209h3.844l-5.613,14.125H257.953z"/>
		<path fill="#6D6E71" d="M268.672,136.383c0.859,0,1.53,0.306,2.014,0.919c0.576,0.726,0.865,1.929,0.865,3.61
			c0,1.677-0.291,2.882-0.871,3.616c-0.48,0.604-1.149,0.907-2.008,0.907c-0.862,0-1.558-0.332-2.086-0.995
			c-0.528-0.663-0.792-1.845-0.792-3.546c0-1.669,0.29-2.87,0.871-3.604C267.145,136.685,267.814,136.383,268.672,136.383z
			 M268.672,137.792c-0.206,0-0.389,0.065-0.55,0.197c-0.161,0.131-0.286,0.366-0.375,0.704c-0.117,0.439-0.175,1.179-0.175,2.219
			s0.052,1.754,0.157,2.144c0.104,0.389,0.236,0.648,0.396,0.777c0.159,0.129,0.341,0.193,0.547,0.193s0.389-0.065,0.55-0.196
			s0.286-0.366,0.375-0.705c0.117-0.435,0.175-1.173,0.175-2.213s-0.052-1.754-0.157-2.144s-0.237-0.649-0.396-0.78
			C269.061,137.857,268.878,137.792,268.672,137.792z"/>
		<path fill="#6D6E71" d="M275.553,125.559v1.578h-5.956c0.064-0.597,0.258-1.162,0.58-1.696c0.323-0.534,0.959-1.243,1.911-2.125
			c0.766-0.713,1.236-1.197,1.409-1.451c0.233-0.351,0.351-0.697,0.351-1.04c0-0.379-0.102-0.67-0.305-0.874
			c-0.204-0.204-0.485-0.306-0.844-0.306c-0.354,0-0.637,0.107-0.847,0.321c-0.209,0.213-0.331,0.568-0.363,1.064l-1.693-0.169
			c0.101-0.935,0.417-1.606,0.949-2.013c0.532-0.407,1.197-0.611,1.996-0.611c0.875,0,1.562,0.236,2.062,0.708
			c0.5,0.472,0.75,1.058,0.75,1.759c0,0.399-0.072,0.779-0.215,1.14c-0.143,0.361-0.37,0.739-0.68,1.134
			c-0.206,0.262-0.576,0.639-1.112,1.131s-0.876,0.818-1.019,0.979s-0.259,0.318-0.348,0.472H275.553z"/>
	</g>
	<g>
		<path fill="#6D6E71" d="M68.273,247.739l-5.693-14.125h3.924l2.66,7.209l0.771,2.407c0.204-0.612,0.333-1.015,0.386-1.21
			c0.124-0.399,0.257-0.798,0.399-1.197l2.687-7.209h3.844l-5.613,14.125H68.273z"/>
		<path fill="#6D6E71" d="M80.468,254.812h-1.699v-6.403c-0.621,0.581-1.353,1.01-2.195,1.288v-1.542
			c0.443-0.145,0.925-0.42,1.445-0.825c0.52-0.405,0.876-0.878,1.07-1.418h1.378V254.812z"/>
		<path fill="#6D6E71" d="M85.88,227.765c0.859,0,1.53,0.306,2.014,0.919c0.576,0.726,0.865,1.929,0.865,3.61
			c0,1.677-0.291,2.882-0.871,3.616c-0.48,0.604-1.149,0.907-2.008,0.907c-0.862,0-1.558-0.332-2.086-0.995
			c-0.528-0.663-0.792-1.845-0.792-3.546c0-1.669,0.29-2.87,0.871-3.604C84.352,228.067,85.021,227.765,85.88,227.765z
			 M85.88,229.174c-0.206,0-0.389,0.065-0.55,0.197c-0.161,0.131-0.286,0.366-0.375,0.704c-0.117,0.439-0.175,1.179-0.175,2.219
			s0.052,1.754,0.157,2.144c0.104,0.389,0.236,0.648,0.396,0.777c0.159,0.129,0.341,0.193,0.547,0.193s0.389-0.065,0.55-0.196
			s0.286-0.366,0.375-0.705c0.117-0.435,0.175-1.173,0.175-2.213s-0.052-1.754-0.157-2.144s-0.237-0.649-0.396-0.78
			C86.268,229.239,86.085,229.174,85.88,229.174z"/>
	</g>
	<g>
		<path fill="#6D6E71" d="M161.943,247.739l-5.693-14.125h3.924l2.66,7.209l0.771,2.407c0.204-0.612,0.333-1.015,0.386-1.21
			c0.124-0.399,0.257-0.798,0.399-1.197l2.687-7.209h3.844l-5.613,14.125H161.943z"/>
		<path fill="#6D6E71" d="M174.139,254.812h-1.699v-6.403c-0.621,0.581-1.353,1.01-2.195,1.288v-1.542
			c0.443-0.145,0.925-0.42,1.445-0.825c0.52-0.405,0.876-0.878,1.07-1.418h1.378V254.812z"/>
		<path fill="#6D6E71" d="M181.026,236.666h-1.699v-6.403c-0.621,0.581-1.353,1.01-2.195,1.288v-1.542
			c0.443-0.145,0.925-0.42,1.445-0.825c0.52-0.405,0.876-0.878,1.07-1.418h1.378V236.666z"/>
	</g>
	<g>
		<path fill="#6D6E71" d="M256.516,247.739l-5.693-14.125h3.924l2.66,7.209l0.771,2.407c0.204-0.612,0.333-1.015,0.386-1.21
			c0.124-0.399,0.257-0.798,0.399-1.197l2.687-7.209h3.844l-5.613,14.125H256.516z"/>
		<path fill="#6D6E71" d="M268.711,254.812h-1.699v-6.403c-0.621,0.581-1.353,1.01-2.195,1.288v-1.542
			c0.443-0.145,0.925-0.42,1.445-0.825c0.52-0.405,0.876-0.878,1.07-1.418h1.378V254.812z"/>
		<path fill="#6D6E71" d="M276.989,235.087v1.578h-5.956c0.064-0.597,0.258-1.162,0.58-1.696c0.323-0.534,0.959-1.243,1.911-2.125
			c0.766-0.713,1.236-1.197,1.409-1.451c0.233-0.351,0.351-0.697,0.351-1.04c0-0.379-0.102-0.67-0.305-0.874
			c-0.204-0.204-0.485-0.306-0.844-0.306c-0.354,0-0.637,0.107-0.847,0.321c-0.209,0.213-0.331,0.568-0.363,1.064l-1.693-0.169
			c0.101-0.935,0.417-1.606,0.949-2.013c0.532-0.407,1.197-0.611,1.996-0.611c0.875,0,1.562,0.236,2.062,0.708
			c0.5,0.472,0.75,1.058,0.75,1.759c0,0.399-0.072,0.779-0.215,1.14c-0.143,0.361-0.37,0.739-0.68,1.134
			c-0.206,0.262-0.576,0.639-1.112,1.131s-0.876,0.818-1.019,0.979s-0.259,0.318-0.348,0.472H276.989z"/>
	</g>
	<line fill="none" stroke="#4EBDCD" stroke-width="3" stroke-miterlimit="10" x1="116.67" y1="68.927" x2="116.67" y2="515.593"/>
	<line fill="none" stroke="#4EBDCD" stroke-width="3" stroke-miterlimit="10" x1="213.593" y1="68.927" x2="213.593" y2="515.593"/>
	<g>
		<path fill="#6D6E71" d="M70.559,471.178l-5.693-14.126h3.924l2.66,7.209l0.771,2.408c0.204-0.612,0.333-1.016,0.386-1.211
			c0.124-0.398,0.257-0.798,0.399-1.197l2.687-7.209h3.844l-5.613,14.126H70.559z"/>
		<path fill="#6D6E71" d="M78.758,478.251v-8.864h2.678l1.608,6.046l1.59-6.046h2.685v8.864h-1.663v-6.978l-1.76,6.978h-1.723
			l-1.753-6.978v6.978H78.758z"/>
		<path fill="#6D6E71" d="M91.594,451.204c0.859,0,1.53,0.307,2.014,0.919c0.576,0.726,0.865,1.929,0.865,3.61
			c0,1.676-0.291,2.882-0.871,3.615c-0.48,0.604-1.149,0.907-2.008,0.907c-0.862,0-1.558-0.331-2.086-0.995
			c-0.528-0.662-0.792-1.845-0.792-3.546c0-1.669,0.29-2.87,0.871-3.604C90.066,451.507,90.736,451.204,91.594,451.204z
			 M91.594,452.612c-0.206,0-0.389,0.066-0.55,0.197c-0.161,0.131-0.286,0.365-0.375,0.704c-0.117,0.439-0.175,1.179-0.175,2.22
			c0,1.039,0.052,1.754,0.157,2.143c0.104,0.39,0.236,0.648,0.396,0.777c0.159,0.129,0.341,0.193,0.547,0.193
			s0.389-0.065,0.55-0.196s0.286-0.366,0.375-0.704c0.117-0.436,0.175-1.174,0.175-2.213c0-1.041-0.052-1.755-0.157-2.145
			c-0.105-0.389-0.237-0.648-0.396-0.779S91.8,452.612,91.594,452.612z"/>
	</g>
	<g>
		<path fill="#6D6E71" d="M164.167,471.178l-5.693-14.126h3.924l2.66,7.209l0.771,2.408c0.204-0.612,0.333-1.016,0.386-1.211
			c0.124-0.398,0.257-0.798,0.399-1.197l2.687-7.209h3.844l-5.613,14.126H164.167z"/>
		<path fill="#6D6E71" d="M172.366,478.251v-8.864h2.678l1.608,6.046l1.59-6.046h2.685v8.864h-1.663v-6.978l-1.76,6.978h-1.723
			l-1.753-6.978v6.978H172.366z"/>
		<path fill="#6D6E71" d="M186.678,460.104h-1.699v-6.403c-0.621,0.581-1.353,1.01-2.195,1.288v-1.542
			c0.443-0.146,0.925-0.421,1.445-0.825c0.52-0.405,0.876-0.878,1.07-1.418h1.378V460.104z"/>
	</g>
	<g>
		<path fill="#6D6E71" d="M258.802,471.178l-5.693-14.126h3.924l2.66,7.209l0.771,2.408c0.204-0.612,0.333-1.016,0.386-1.211
			c0.124-0.398,0.257-0.798,0.399-1.197l2.687-7.209h3.844l-5.613,14.126H258.802z"/>
		<path fill="#6D6E71" d="M267.001,478.251v-8.864h2.678l1.608,6.046l1.59-6.046h2.685v8.864H273.9v-6.978l-1.76,6.978h-1.723
			l-1.753-6.978v6.978H267.001z"/>
		<path fill="#6D6E71" d="M282.704,458.526v1.578h-5.956c0.064-0.597,0.258-1.162,0.58-1.695c0.323-0.535,0.959-1.243,1.911-2.126
			c0.766-0.714,1.236-1.197,1.409-1.451c0.233-0.351,0.351-0.697,0.351-1.04c0-0.379-0.102-0.67-0.305-0.873
			c-0.204-0.204-0.485-0.307-0.844-0.307c-0.354,0-0.637,0.107-0.847,0.321c-0.209,0.214-0.331,0.568-0.363,1.063l-1.693-0.169
			c0.101-0.935,0.417-1.606,0.949-2.013c0.532-0.408,1.197-0.611,1.996-0.611c0.875,0,1.562,0.236,2.062,0.707
			c0.5,0.473,0.75,1.059,0.75,1.76c0,0.399-0.072,0.779-0.215,1.14s-0.37,0.739-0.68,1.134c-0.206,0.262-0.576,0.639-1.112,1.131
			s-0.876,0.818-1.019,0.979s-0.259,0.318-0.348,0.472H282.704z"/>
	</g>
</g>
<g id="Layer_2">
</g>
</svg>
